<svg xmlns="http://www.w3.org/2000/svg" width="702.326" height="404.131" viewBox="0 0 702.326 404.131"><g transform="translate(-50.926 -91.735)"><path d="M131.363,211.391c-31.1,10.035-67.109,25.664-72.872,57.825-3.756,20.954,8.418,42.888,26.747,53.713,8.947,5.285,19.931,9,24.611,18.282,7.273,14.417-5.795,30.949-19.6,39.332s-30.632,15.033-36.915,29.908c-4.14,9.8-2.517,21.223,1.582,31.044,15.033,36.017,58.864,51.791,97.845,49.864s75.952-17.112,114.19-24.932c131.309-26.85,268.983,34.093,400.068,6.165,20.4-4.346,40.946-11.148,56.7-24.814,17.758-15.4,27.841-38.644,29.361-62.1,1.452-22.38-6.483-47.58-26.514-57.665-11.706-5.9-25.7-5.654-38.4-2.448-8.114,2.048-16.089,5.255-24.459,5.31s-17.578-4.138-20-12.15c-2.551-8.423,3.262-17.118,9.926-22.865,13.556-11.688,31.683-17.527,43.994-30.519A51.977,51.977,0,0,0,677.279,180.6c-41.367-14.683-86.437,25.347-128.736,13.618-3.142-.871-6.446-2.214-8.1-5.022-1.614-2.741-1.244-6.22-.319-9.263,5.183-17.033,25.31-27.876,26.192-45.659.48-9.667-5.236-18.711-12.44-25.176-49.5-44.417-121.226,8.418-171.7,25.1C299.185,161.625,214.585,184.533,131.363,211.391Z" fill="#494089"/><g transform="translate(243.957 263.486)"><path d="M229.925,267.583a.018.018,0,0,1,.007-.025L245,258.652a.018.018,0,0,0,.007-.023l-6.749-11.418a.019.019,0,0,0-.025-.005l-15.066,8.906a.018.018,0,0,1-.025-.007l-39.6-67a.019.019,0,0,0-.025-.005l-15.731,9.3a.036.036,0,0,0-.016.026l-7.414,97.254a.073.073,0,0,0,.009.034l5.669,9.593a.017.017,0,0,0,.025.005l50.072-29.6a.015.015,0,0,1,.023.005L233.5,305.057a.018.018,0,0,0,.025.007l13.738-8.121a.018.018,0,0,0,.007-.025Zm-55.867,17.555a.018.018,0,0,1-.025-.007l-.178-.3a.053.053,0,0,1-.007-.032l4.7-52.223c0-.011,0-.025,0-.035l-.457-21.189a.035.035,0,0,1,.016-.026l.467-.275a.016.016,0,0,1,.023.007l9.49,17.185.018.032,21.261,35.971a.016.016,0,0,1-.005.023Z" transform="translate(-160.355 -189.101)" fill="#fff"/><g transform="translate(229.557 20.423)"><path d="M401.414,210.274a.017.017,0,0,0-.005-.025l-15.569-9.566a.04.04,0,0,0-.032,0l-89.455,38.871a.077.077,0,0,0-.026.021l-5.833,9.5a.019.019,0,0,0,.005.025l49.559,30.452a.015.015,0,0,1,.005.023L322.224,308.6a.018.018,0,0,0,.007.025l13.6,8.354a.016.016,0,0,0,.023-.005l17.839-29.033a.019.019,0,0,1,.025-.005l14.913,9.162a.018.018,0,0,0,.025-.007l6.941-11.3a.017.017,0,0,0-.005-.025l-14.913-9.164a.019.019,0,0,1-.005-.025Zm-54.371,57.935a.018.018,0,0,1-.025.007l-34.945-21.471a.019.019,0,0,1-.005-.025l.183-.3a.078.078,0,0,1,.026-.021l48.37-20.233.032-.014,18.524-10.3a.03.03,0,0,1,.03,0l.462.284a.017.017,0,0,1,.005.025l-10.764,16.414-.019.03Z" transform="translate(-290.491 -200.679)" fill="#fff"/></g></g><g transform="translate(316.102 229.071)"><circle cx="60.802" cy="60.802" r="60.802" transform="translate(0 85.988) rotate(-45)" fill="#a37dff"/><path d="M215.807,227.222c18.038,2.565,48.363-10.318,58.084-12.205,19.762-3.833,40.06.732,60.2,1.4a60.483,60.483,0,0,0-5.59-12.493c-7.407.305-15.214-.979-22.687-1.2-14.188-.413-28.3,3.315-42.464,2.457-6.548-.4-21.282-6.13-34.683-8.386A60.48,60.48,0,0,0,215.807,227.222Z" transform="translate(-190.135 -148.804)" fill="#cbf" fill-rule="evenodd"/><path d="M257.69,183.868a60.77,60.77,0,0,0-17.755,2.641c7.617,4.35,22.884,5.909,26.428,6.384,6.368.852,13.286,1.159,18.753-2.216.076-.048.15-.1.226-.152A60.525,60.525,0,0,0,257.69,183.868Z" transform="translate(-171.702 -158.683)" fill="#cbf" fill-rule="evenodd"/><path d="M336.607,220.371a117.731,117.731,0,0,0-53.722-.928c-9.591,2.094-18.882,5.389-28.414,7.739a148.584,148.584,0,0,1-36.686,4.29c-.52-.005-1.051-.021-1.589-.046a60.665,60.665,0,0,0,16.947,31.388,209.433,209.433,0,0,0,41.619-20.164c11.434-7.2,22.875-15.779,36.333-17.01,8.354-.764,16.564,1.415,24.835,3.124A61.209,61.209,0,0,0,336.607,220.371Z" transform="translate(-189.838 -133.537)" fill="#cbf" fill-rule="evenodd"/><path d="M319.662,229.5c-8.247-1.221-22.99,6.031-26.6,9.09-3.223,2.729-5.938,6.061-9.416,8.457-4.415,3.038-9.751,4.359-14.941,5.7q-15.714,4.054-31.18,8.993c-1.309.418-2.727.993-3.366,2.173a60.781,60.781,0,0,0,48.056,3.385c6.31-9.009,10.079-20.679,20.065-24.913,1.688-.714,7.619-1.563,12.976-2.951A60.457,60.457,0,0,0,319.662,229.5Z" transform="translate(-176.114 -123.927)" fill="#cbf" fill-rule="evenodd"/></g><path d="M501.229,382.338a174.217,174.217,0,0,0-342.424,0Z" transform="translate(82.418 113.529)" fill="#fff" fill-rule="evenodd"/><path d="M291.018,302.933c-.8,6.105-10.261,9.892-21.124,8.46s-19.014-7.541-18.21-13.644,10.263-9.892,21.125-8.46S291.824,296.829,291.018,302.933Z" transform="translate(153.334 150.696)" fill="#90c9ea" fill-rule="evenodd"/><g transform="translate(247.877 188.933)"><circle cx="22.491" cy="22.491" r="22.491" transform="translate(15.021)" fill="#abc3ff"/><path d="M188.607,146.837a22.374,22.374,0,0,0-11,2.884,3.837,3.837,0,0,0,.55.739c2.272,2.293,7.687,2.392,10.709,2.535a36.866,36.866,0,0,0,13.089-1.738A22.351,22.351,0,0,0,188.607,146.837Z" transform="translate(-151.095 -146.837)" fill="#79a1f2" fill-rule="evenodd"/><path d="M210.783,155.279a12.011,12.011,0,0,0,2.173-.924,22.569,22.569,0,0,0-1.946-2.822l-6.73,3.013a34.854,34.854,0,0,1-5.336,2.048,31.894,31.894,0,0,1-8.368.734,169.61,169.61,0,0,1-17.287-1.233,22.284,22.284,0,0,0-1.681,14.41,20.209,20.209,0,0,0,3.311-1.926,44.587,44.587,0,0,1,9.328-4.066Z" transform="translate(-156.071 -143.25)" fill="#79a1f2" fill-rule="evenodd"/><path d="M203.322,154.561c-1.741,1.556-3.032,3.621-4.936,5.107a26.445,26.445,0,0,1-6.585,3.768c-1.667.653-3.4,1.14-5,1.949a2.307,2.307,0,0,0-1.367,1.365c-.258,1.148,1.094,1.976,2.24,2.242a25.835,25.835,0,0,0,6.984.332l8.31-.36c.492-.021,1-.062,1.494-.122a22.208,22.208,0,0,0-1.138-14.281Z" transform="translate(-145.141 -140.936)" fill="#79a1f2" fill-rule="evenodd"/><path d="M193.715,159.242a52.222,52.222,0,0,0-11.612,3.787,59.455,59.455,0,0,1-7.474,3.274,13.142,13.142,0,0,1-2.935.365,22.518,22.518,0,0,0,7.144,10.55c.231-.275.457-.554.67-.84,3.364-4.47,5.648-10.1,10.5-12.881a15.542,15.542,0,0,0,2.607-1.57A2.861,2.861,0,0,0,193.715,159.242Z" transform="translate(-155.613 -137.359)" fill="#79a1f2" fill-rule="evenodd"/><path d="M208.349,165.047a4.668,4.668,0,0,0-.748-.025l-14.4.8c-2.985.166-6.133.385-8.6,2.064a16.634,16.634,0,0,0-4.4,5.267c-.413.663-1.155,1.584-1.845,2.56a22.332,22.332,0,0,0,9.1,2.187c.587-.737,1.12-1.533,1.69-2.286a19.8,19.8,0,0,1,13.532-7.654c1.406-.15,2.826-.153,4.228-.3A22.18,22.18,0,0,0,208.349,165.047Z" transform="translate(-150.526 -132.947)" fill="#79a1f2" fill-rule="evenodd"/><path d="M212.558,166.462a22.407,22.407,0,0,0,1.341-4.186,139.126,139.126,0,0,1-19.94,5.308,138.2,138.2,0,0,1-20.686,2.528,22.659,22.659,0,0,0,2.815,3.39,147.575,147.575,0,0,0,18.541-2.455A148.411,148.411,0,0,0,212.558,166.462Z" transform="translate(-154.407 -135.041)" fill="#618de5" fill-rule="evenodd"/><g transform="translate(0 11.737)"><path d="M178.033,178.64c-8.06,0-14.636-1.284-15.387-5.16-.706-3.65,4.061-7.44,14.172-11.263a1.764,1.764,0,1,1,1.247,3.3c-10.238,3.872-12.055,6.781-11.954,7.292.374,1.93,13.078,4.165,36.019-.28a124.146,124.146,0,0,0,24.976-7.28c7.416-3.242,8.626-5.484,8.543-5.909-.1-.533-3.006-2.616-14.535-2.283a1.764,1.764,0,0,1-.1-3.526c11.277-.337,17.379,1.4,18.1,5.138.623,3.216-2.842,6.424-10.594,9.811a127.721,127.721,0,0,1-25.719,7.513A142.082,142.082,0,0,1,178.033,178.64Z" transform="translate(-162.577 -153.491)" fill="#fff"/></g></g><g transform="translate(612.215 232.105)"><circle cx="18.117" cy="18.117" r="18.117" transform="translate(0 6.853) rotate(-10.903)" fill="#7b91ff"/><path d="M389.89,175.249a18.031,18.031,0,0,0-8.9-2.175,3.022,3.022,0,0,0,.106.736c.73,2.5,4.528,4.641,6.613,5.9a29.713,29.713,0,0,0,9.94,3.787A18.013,18.013,0,0,0,389.89,175.249Z" transform="translate(-360.049 -169.965)" fill="#80c3ff" fill-rule="evenodd"/><path d="M404.876,188.853a9.8,9.8,0,0,0,1.893.178,18.082,18.082,0,0,0-.295-2.747l-5.922-.445a28.342,28.342,0,0,1-4.567-.6,25.782,25.782,0,0,1-6.209-2.688,136.779,136.779,0,0,1-11.773-7.5,17.929,17.929,0,0,0-6.716,9.563,16.415,16.415,0,0,0,3.083-.093,35.772,35.772,0,0,1,8.167.7Z" transform="translate(-367.464 -168.451)" fill="#80c3ff" fill-rule="evenodd"/><path d="M399,184.271c-1.831.434-3.539,1.4-5.454,1.725a21.306,21.306,0,0,1-6.11.143c-1.432-.176-2.851-.5-4.292-.536a1.857,1.857,0,0,0-1.491.443c-.624.714.016,1.819.725,2.447A20.837,20.837,0,0,0,387.2,191.4l6.024,2.932c.358.175.73.339,1.106.487A17.9,17.9,0,0,0,399,184.271Z" transform="translate(-359.74 -161.409)" fill="#80c3ff" fill-rule="evenodd"/><path d="M389.643,184.6a41.978,41.978,0,0,0-9.677-1.769,48,48,0,0,1-6.55-.547,10.691,10.691,0,0,1-2.219-.868,18.145,18.145,0,0,0,1.014,10.213c.27-.106.536-.217.8-.337,4.1-1.877,7.876-4.992,12.381-5.1a12.726,12.726,0,0,0,2.448-.113A2.305,2.305,0,0,0,389.643,184.6Z" transform="translate(-367.777 -163.589)" fill="#80c3ff" fill-rule="evenodd"/><path d="M398.191,194.7a3.763,3.763,0,0,0-.52-.305l-10.512-4.957c-2.177-1.027-4.491-2.08-6.887-1.838a13.435,13.435,0,0,0-5.135,2.046c-.545.312-1.425.679-2.288,1.106a17.979,17.979,0,0,0,5.611,5.04c.7-.3,1.381-.656,2.074-.972a15.967,15.967,0,0,1,12.521-.233c1.051.434,2.059.975,3.11,1.408A18.131,18.131,0,0,0,398.191,194.7Z" transform="translate(-366.27 -158.891)" fill="#80c3ff" fill-rule="evenodd"/></g><path d="M3.936,0H45.455a3.937,3.937,0,0,1,3.937,3.937V14.112a0,0,0,0,1,0,0H0a0,0,0,0,1,0,0V3.936A3.936,3.936,0,0,1,3.936,0Z" transform="translate(243.416 459.739) rotate(-62.204)" fill="#fff"/><path d="M3.937,0h29.17a3.937,3.937,0,0,1,3.937,3.937V14.112a0,0,0,0,1,0,0H0a0,0,0,0,1,0,0V3.937A3.937,3.937,0,0,1,3.937,0Z" transform="matrix(0.371, 0.929, -0.929, 0.371, 566.908, 425.776)" fill="#fff"/><path d="M3.937,0H45.455a3.936,3.936,0,0,1,3.936,3.936V14.112a0,0,0,0,1,0,0H0a0,0,0,0,1,0,0V3.937A3.937,3.937,0,0,1,3.937,0Z" transform="matrix(0.812, -0.583, 0.583, 0.812, 305.794, 386.353)" fill="#fff"/><path d="M3.937,0H45.455a3.937,3.937,0,0,1,3.937,3.937V14.112a0,0,0,0,1,0,0H0a0,0,0,0,1,0,0V3.937A3.937,3.937,0,0,1,3.937,0Z" transform="translate(505.035 375.68) rotate(37.09)" fill="#fff"/><g transform="translate(300.929 387.608)"><ellipse cx="27.783" cy="12.348" rx="27.783" ry="12.348" transform="matrix(0.892, -0.453, 0.453, 0.892, 0, 25.154)" fill="#90c9ea"/><path d="M217.04,274.358c12.358-6.273,24.616-7.433,29.153-3.122a6.319,6.319,0,0,0-.554-3.736c-3.087-6.08-16.68-5.38-30.363,1.566s-22.27,17.506-19.183,23.588a5.847,5.847,0,0,0,1.21,1.556C198.088,288.122,205.86,280.034,217.04,274.358Z" transform="translate(-190.504 -256.489)" fill="#494089" fill-rule="evenodd"/></g><g transform="translate(491.172 397.532)"><path d="M332.733,287.112c-2.427,3.881-11.475,2.6-20.208-2.859s-13.847-13.036-11.42-16.917,11.475-2.6,20.208,2.859S335.16,283.23,332.733,287.112Z" transform="translate(-300.501 -265.091)" fill="#90c9ea" fill-rule="evenodd"/><path d="M318.826,273.043c7.889,4.932,12.8,11.579,11.895,15.682a4.245,4.245,0,0,0,1.956-1.612c2.427-3.883-2.685-11.455-11.42-16.917s-17.781-6.742-20.208-2.859a3.886,3.886,0,0,0-.474,1.235C304.345,266.913,311.687,268.58,318.826,273.043Z" transform="translate(-300.445 -265.091)" fill="#494089" fill-rule="evenodd"/></g><path d="M272.807,289.288c-10.863-1.432-20.319,2.355-21.125,8.46a6.4,6.4,0,0,0-.023,1.325c2.358-4.927,10.879-7.774,20.522-6.5,10.074,1.328,17.806,6.68,18.233,12.32a6.487,6.487,0,0,0,.6-1.958C291.82,296.829,283.667,290.72,272.807,289.288Z" transform="translate(153.338 150.696)" fill="#494089" fill-rule="evenodd"/><circle cx="5.733" cy="5.733" r="5.733" transform="translate(150.484 283.603)" fill="#90c9ea"/><path d="M300.6,116.982a2.572,2.572,0,1,1,2.57-2.572A2.572,2.572,0,0,1,300.6,116.982Z" transform="translate(188.785 15.358)" fill="#90c9ea" fill-rule="evenodd"/><circle cx="2.572" cy="2.572" r="2.572" transform="translate(523.274 174.898)" fill="#90c9ea"/><circle cx="2.572" cy="2.572" r="2.572" transform="translate(93.67 258.613)" fill="#90c9ea"/><path d="M287.987,167.4a3.311,3.311,0,1,1-3.311-3.311A3.311,3.311,0,0,1,287.987,167.4Z" transform="translate(176.051 55.275)" fill="#fff" fill-rule="evenodd"/><path d="M366.86,253.648a3.311,3.311,0,1,1-3.311-3.311A3.311,3.311,0,0,1,366.86,253.648Z" transform="translate(236.309 121.169)" fill="#fff" fill-rule="evenodd"/><path d="M422.237,256.771a3.311,3.311,0,1,1-3.311-3.311A3.311,3.311,0,0,1,422.237,256.771Z" transform="translate(278.616 123.555)" fill="#fff" fill-rule="evenodd"/><path d="M126.86,284.148a3.311,3.311,0,1,1-3.311-3.311A3.311,3.311,0,0,1,126.86,284.148Z" transform="translate(52.953 144.471)" fill="#fff" fill-rule="evenodd"/><path d="M235.237,148.271a3.311,3.311,0,1,1-3.311-3.311A3.311,3.311,0,0,1,235.237,148.271Z" transform="translate(135.751 40.663)" fill="#fff" fill-rule="evenodd"/><path d="M213.674,194.4l4.414,2.523-4.505,2.355-2.523,4.414-2.355-4.505-4.414-2.522,4.505-2.355,2.522-4.414Z" transform="translate(117.168 74.994)" fill="#fff" fill-rule="evenodd"/><path d="M330.138,167.391l2.882,1.647-2.941,1.538-1.647,2.882-1.538-2.941-2.882-1.647,2.941-1.538,1.647-2.882Z" transform="translate(208.633 55.552)" fill="#fff" fill-rule="evenodd"/><path d="M137.3,245.806l2.882,1.647-2.941,1.538-1.647,2.882-1.538-2.941-2.882-1.647,2.941-1.538,1.647-2.882Z" transform="translate(61.31 115.461)" fill="#fff" fill-rule="evenodd"/><path d="M138.236,179.173l2.882,1.647-2.941,1.538-1.647,2.882-1.538-2.941-2.882-1.647,2.941-1.538,1.647-2.882Z" transform="translate(62.023 64.554)" fill="#fff" fill-rule="evenodd"/><path d="M88.268,278.611l2.882,1.647L88.209,281.8l-1.647,2.882-1.538-2.941-2.882-1.647,2.941-1.538,1.647-2.882Z" transform="translate(23.849 140.523)" fill="#fff" fill-rule="evenodd"/><path d="M385.108,232.506l2.882,1.647-2.941,1.538-1.647,2.882-1.538-2.941-2.882-1.647,2.941-1.538,1.647-2.882Z" transform="translate(250.629 105.299)" fill="#fff" fill-rule="evenodd"/><path d="M405.268,298.277l2.882,1.647-2.941,1.538-1.647,2.882-1.538-2.941-2.882-1.647,2.941-1.538,1.647-2.882Z" transform="translate(266.031 155.548)" fill="#fff" fill-rule="evenodd"/></g></svg>