<svg xmlns="http://www.w3.org/2000/svg" width="83.543" height="83.543" viewBox="0 0 83.543 83.543"><path d="M73.421,134.541a1.72,1.72,0,0,1-.667-.132A1.742,1.742,0,0,1,71.68,132.8V122.358a1.741,1.741,0,0,1,3.481,0V128.6l7.472-7.472a1.734,1.734,0,0,1,1.23-.51h52.214a3.485,3.485,0,0,0,3.481-3.481V68.4a3.484,3.484,0,0,0-3.481-3.48h-8.7a1.741,1.741,0,0,1,0-3.481h8.7a6.969,6.969,0,0,1,6.962,6.961v48.734a6.969,6.969,0,0,1-6.962,6.961H84.583l-9.933,9.933A1.741,1.741,0,0,1,73.421,134.541Zm0,0" transform="translate(-59.496 -50.998)" fill="#392577"/><path d="M6.962,124.1A6.969,6.969,0,0,1,0,117.137V68.4a6.969,6.969,0,0,1,6.962-6.961h8.7a1.741,1.741,0,0,1,0,3.481h-8.7A3.484,3.484,0,0,0,3.481,68.4v48.734a3.485,3.485,0,0,0,3.481,3.481,1.74,1.74,0,0,1,0,3.48Zm0,0" transform="translate(0 -50.998)" fill="#392577"/><g transform="translate(10.443)"><path d="M151.132,43.512h-1.741a1.741,1.741,0,0,1,0-3.481h1.741a3.485,3.485,0,0,0,3.481-3.481V33.069a3.485,3.485,0,0,0-3.481-3.481h-1.741a1.74,1.74,0,0,1-1.74-1.74V24.367a20.886,20.886,0,0,0-41.772,0v3.481a1.741,1.741,0,0,1-3.481,0V24.367a24.367,24.367,0,0,1,48.734,0v1.741a6.968,6.968,0,0,1,6.961,6.961V36.55A6.969,6.969,0,0,1,151.132,43.512Zm0,0" transform="translate(-95.437)" fill="#392577"/><path d="M70.144,171.006H68.4a6.969,6.969,0,0,1-6.961-6.962v-3.481A6.968,6.968,0,0,1,68.4,153.6h1.741a1.741,1.741,0,0,1,1.74,1.74v13.924A1.741,1.741,0,0,1,70.144,171.006ZM68.4,157.082a3.484,3.484,0,0,0-3.48,3.481v3.481a3.484,3.484,0,0,0,3.48,3.481Zm0,0" transform="translate(-61.441 -127.494)" fill="#392577"/><path d="M220.261,227.628a5.222,5.222,0,1,1,4.924-6.962h.3A15.681,15.681,0,0,0,241.147,205v-8.7a1.741,1.741,0,1,1,3.481,0V205a19.168,19.168,0,0,1-19.145,19.145h-1.741a1.739,1.739,0,0,1-1.74-1.741,1.741,1.741,0,1,0-1.74,1.741,1.741,1.741,0,0,1,0,3.481Zm0,0" transform="translate(-188.932 -161.49)" fill="#392577"/><path d="M176.429,60.106a1.741,1.741,0,0,1-1.741-1.741,13.924,13.924,0,0,0-27.848,0,1.741,1.741,0,1,1-3.481,0,17.4,17.4,0,0,1,34.81,0A1.74,1.74,0,0,1,176.429,60.106Zm0,0" transform="translate(-129.436 -33.999)" fill="#392577"/><path d="M194.559,266.238h3.481v3.481h-3.481Zm0,0" transform="translate(-171.933 -220.986)" fill="#392577"/><path d="M235.52,266.238H239v3.481H235.52Zm0,0" transform="translate(-205.932 -220.986)" fill="#392577"/><path d="M276.48,266.238h3.481v3.481H276.48Zm0,0" transform="translate(-239.931 -220.986)" fill="#392577"/></g></svg>