<svg xmlns="http://www.w3.org/2000/svg" width="51.375" height="81.258" viewBox="0 0 51.375 81.258"><g transform="translate(-81.431)"><g transform="translate(81.431)"><g transform="translate(5.918)"><path d="M227.573,143.233l-4.677,4.652h0l1.974,13.2h17.527a81.914,81.914,0,0,0-3.627-10.707,3.9,3.9,0,0,0-2.225-1.9l-6.058-2.789Z" transform="translate(-202.855 -116.952)" fill="#392577"/><path d="M133.184,147.883h0l-4.677-4.652-2.91,2.454-6.058,2.789a3.938,3.938,0,0,0-2.225,1.9,81.865,81.865,0,0,0-3.627,10.707H131.21Z" transform="translate(-113.683 -116.951)" fill="#392577"/><path d="M171.769,26.193c4.621,0,10.82-5.773,10.925-15.454C182.762,4.02,179.562,0,171.769,0s-10.993,4.02-10.925,10.738C160.949,20.419,166.361,26.193,171.769,26.193Zm-2.2-12.756c5.65.6,10.575-7.3,10.5-.225-.048,4.235-3.976,10.631-8.3,10.631-4.537,0-7.667-5.315-8.3-10.628C162.786,7.452,173.362,8.764,169.574,13.436Z" transform="translate(-152.19)" fill="#392577"/></g><g transform="translate(0 47.055)"><path d="M200.5,360.385c-.476-.355-.946-.721-1.4-1.092a17.443,17.443,0,0,0,.591,3.128c.666-.335,1.357-.719,2.058-1.144C201.325,360.988,200.906,360.688,200.5,360.385Z" transform="translate(-177.509 -340.424)" fill="#392577"/><path d="M175.445,352.279a21.668,21.668,0,0,0-2.14,2.418c-1.435,1.922-1.464,2.909-1.255,3.19a1.141,1.141,0,0,0,.9.273,9.374,9.374,0,0,0,3.405-.918,19.776,19.776,0,0,1-.785-4.849Z" transform="translate(-155.346 -334.697)" fill="#392577"/><path d="M201.747,319.763c-.7-.425-1.391-.809-2.058-1.144a17.452,17.452,0,0,0-.591,3.128c.453-.371.923-.737,1.4-1.092C200.906,320.352,201.325,320.053,201.747,319.763Z" transform="translate(-177.509 -307.213)" fill="#392577"/><path d="M210.241,298.737c-.054-.134-.109-.263-.164-.385-.743-1.646-1.709-2.59-2.651-2.59s-1.908.944-2.651,2.59c-.055.121-.11.251-.164.385a31.014,31.014,0,0,1,2.815,1.587A30.9,30.9,0,0,1,210.241,298.737Z" transform="translate(-182.009 -288.55)" fill="#392577"/><path d="M174.7,311.481a1.23,1.23,0,0,1-1.15-.808,4.3,4.3,0,0,0-.6-.046,1.141,1.141,0,0,0-.9.273c-.209.281-.18,1.268,1.255,3.19a21.654,21.654,0,0,0,2.14,2.419l.127-.115a19.775,19.775,0,0,1,.785-4.848c-.3-.128-.588-.245-.872-.349A1.214,1.214,0,0,1,174.7,311.481Z" transform="translate(-155.344 -300.687)" fill="#392577"/><path d="M227.624,320.653c.476.355.946.721,1.4,1.091a17.439,17.439,0,0,0-.59-3.128c-.666.335-1.357.719-2.057,1.144C226.8,320.05,227.217,320.35,227.624,320.653Z" transform="translate(-199.78 -307.21)" fill="#392577"/><path d="M204.611,375.918c.054.134.109.263.164.385.743,1.646,1.709,2.59,2.651,2.59s1.908-.944,2.651-2.59c.055-.121.11-.251.164-.385a31.081,31.081,0,0,1-2.815-1.587A31.116,31.116,0,0,1,204.611,375.918Z" transform="translate(-182.009 -352.702)" fill="#392577"/><path d="M226.375,361.274c.7.425,1.391.809,2.057,1.144a17.5,17.5,0,0,0,.59-3.128c-.453.37-.923.737-1.4,1.091C227.217,360.685,226.8,360.985,226.375,361.274Z" transform="translate(-199.78 -340.421)" fill="#392577"/><path d="M132.28,257.117a2.021,2.021,0,0,0-1.5-.662H83.453a2.022,2.022,0,0,0-2.013,2.215l4.045,30.157a2.023,2.023,0,0,0,2.013,1.83h39.24a2.022,2.022,0,0,0,2.014-1.83L132.8,258.67A2.023,2.023,0,0,0,132.28,257.117Zm-16.011,12.835a1.225,1.225,0,0,1-1.223,1.223,1.205,1.205,0,0,1-.14-.009,24.477,24.477,0,0,1-1.814,1.99,22.8,22.8,0,0,1,2.237,2.534c1.563,2.092,2,3.724,1.257,4.719a2.254,2.254,0,0,1-1.927.788,10.514,10.514,0,0,1-3.834-.991c-.054.132-.108.257-.161.376-.973,2.156-2.329,3.343-3.816,3.343s-2.843-1.187-3.816-3.343c-.053-.118-.108-.244-.161-.376a10.511,10.511,0,0,1-3.833.991,2.255,2.255,0,0,1-1.928-.788c-.741-.994-.306-2.626,1.257-4.719a22.918,22.918,0,0,1,2.237-2.534,22.834,22.834,0,0,1-2.237-2.534c-1.563-2.092-2-3.724-1.257-4.719a2.255,2.255,0,0,1,1.927-.788,5.627,5.627,0,0,1,.858.073,1.222,1.222,0,0,1,2.082.565c.289.1.588.224.893.354.054-.132.108-.257.161-.376.973-2.156,2.328-3.343,3.816-3.343s2.843,1.187,3.816,3.343c.053.118.107.244.161.376a10.521,10.521,0,0,1,3.834-.991,2.252,2.252,0,0,1,1.927.788c.594.8.444,1.976-.445,3.5A1.217,1.217,0,0,1,116.269,269.952Z" transform="translate(-81.431 -256.455)" fill="#392577"/><path d="M247.368,310.627a9.37,9.37,0,0,0-3.406.918,19.759,19.759,0,0,1,.785,4.848l.126.115a23.32,23.32,0,0,0,1.735-1.9,1.208,1.208,0,0,1-.077-.426,1.224,1.224,0,0,1,1.223-1.223h.009c.654-1.14.683-1.822.5-2.061A1.137,1.137,0,0,0,247.368,310.627Z" transform="translate(-214.14 -300.687)" fill="#392577"/><path d="M204.113,330.1c-.544-.405-1.1-.8-1.663-1.17-.559.371-1.119.764-1.663,1.17-.792.59-1.554,1.2-2.266,1.827,0,.139,0,.275,0,.406s0,.268,0,.407c.712.623,1.475,1.237,2.266,1.827.545.406,1.1.8,1.663,1.17.56-.371,1.119-.764,1.663-1.17.792-.59,1.554-1.2,2.267-1.827,0-.139,0-.275,0-.407s0-.267,0-.406C205.668,331.306,204.905,330.691,204.113,330.1Zm-1.663,4.179a1.946,1.946,0,1,1,1.946-1.946A1.948,1.948,0,0,1,202.45,334.281Z" transform="translate(-177.034 -315.634)" fill="#392577"/><path d="M244.749,352.394a19.771,19.771,0,0,1-.785,4.849,9.38,9.38,0,0,0,3.406.918,1.14,1.14,0,0,0,.9-.273c.209-.28.18-1.268-1.255-3.19a21.627,21.627,0,0,0-2.14-2.418Z" transform="translate(-214.142 -334.697)" fill="#392577"/></g></g></g></svg>