<svg xmlns="http://www.w3.org/2000/svg" width="60.37" height="82.468" viewBox="0 0 60.37 82.468"><g transform="translate(-68.599)"><g transform="translate(68.599)"><path d="M118.256,71.759a32.9,32.9,0,0,0-4.7-52.165l4.767-4.767-4.619-4.619,3.422-3.422L111.541,1.2,108.12,4.619,103.5,0,68.6,34.9l4.619,4.619L69.8,42.942l5.589,5.589,3.422-3.422,4.619,4.619L102.8,30.351a18.278,18.278,0,0,1,11.647,17.115,18.467,18.467,0,0,1-6.349,13.9A25,25,0,0,0,71.316,79.706l-.4,2.762h50.284l-.4-2.762A24.878,24.878,0,0,0,118.256,71.759ZM83.426,42.886,75.442,34.9l10.4-10.4a10.489,10.489,0,0,0,7.984,7.984Zm16.653-16.653h0a5.645,5.645,0,0,1-7.985-7.982l0,0a5.713,5.713,0,0,1,7.982,0A5.653,5.653,0,0,1,100.079,26.233ZM103.5,14.827a10.419,10.419,0,0,0-5.163-2.82L103.5,6.844l7.984,7.984-5.158,5.158A10.41,10.41,0,0,0,103.5,14.827Zm-26.8,62.8a20.166,20.166,0,0,1,38.717,0Zm38.869-9.988a25.07,25.07,0,0,0-3.063-3.2c-.105-.092-.212-.182-.318-.272a23.321,23.321,0,0,0,7.1-16.707A23.031,23.031,0,0,0,114.64,33.52a23.466,23.466,0,0,0-8.183-6.822l3.579-3.579a28.072,28.072,0,0,1,5.537,44.523Z" transform="translate(-68.599)" fill="#392577"/></g></g></svg>