<svg xmlns="http://www.w3.org/2000/svg" width="78.479" height="78.479" viewBox="0 0 78.479 78.479"><g transform="translate(0.001 0)"><path d="M62.021,236.749a6.9,6.9,0,1,0,9.755,0A6.9,6.9,0,0,0,62.021,236.749Zm6.5,6.5a2.3,2.3,0,0,1-3.251,0h0a2.3,2.3,0,1,1,3.252,0Z" transform="translate(-50.805 -198.751)" fill="#392577"/><path d="M189.313,364.042a6.906,6.906,0,0,0,0,9.754h0a6.9,6.9,0,1,0,0-9.754Zm6.5,3.251a2.3,2.3,0,1,1-3.252,0A2.3,2.3,0,0,1,195.817,367.293Z" transform="translate(-158.589 -306.534)" fill="#392577"/><path d="M75.925.015l-3.41.379a34.613,34.613,0,0,0-20.578,9.89L28.982,33.239a16.567,16.567,0,0,0-3.706-3.591A16.1,16.1,0,0,0,4.816,54.359a15.941,15.941,0,0,0,15.224,3.9,16.186,16.186,0,0,0-.532,4.128,16.1,16.1,0,0,0,29.344,9.15,16.189,16.189,0,0,0-.018-18.327A16.565,16.565,0,0,0,45.239,49.5L68.194,26.541a34.612,34.612,0,0,0,9.89-20.578l.379-3.41A2.305,2.305,0,0,0,75.925.015ZM8.039,51.079A11.5,11.5,0,0,1,9.359,33.551a11.492,11.492,0,0,1,17.11,4.368,2.3,2.3,0,0,0,3.7.635L43.661,25.063a11.371,11.371,0,0,0,1.789,4.714l-20.7,20.7C20.017,55.21,12.52,55.48,8.039,51.079Zm31.245-.756a2.3,2.3,0,0,0,1.275,1.686A11.5,11.5,0,1,1,27.473,70.514a11.5,11.5,0,0,1,0-16.258L50.166,31.564a2.3,2.3,0,0,0,0-3.252,6.893,6.893,0,0,1,0-9.755l5.022-5.022A30.014,30.014,0,0,1,69.7,5.528l-9.778,9.778a2.3,2.3,0,0,0-.034,3.217,7.133,7.133,0,0,1-.1,9.921L39.924,48.308A2.3,2.3,0,0,0,39.284,50.323ZM66.345,21.785a11.592,11.592,0,0,0-1.734-4.666l8.339-8.34A30.049,30.049,0,0,1,66.345,21.785Z" transform="translate(0)" fill="#392577"/><circle cx="2.299" cy="2.299" r="2.299" transform="translate(52.999 20.881)" fill="#392577"/></g></svg>