<svg xmlns="http://www.w3.org/2000/svg" width="74.969" height="74.855" viewBox="0 0 74.969 74.855"><g transform="translate(0 -0.5)"><path d="M70.576.5H4.393A4.219,4.219,0,0,0,0,4.509v56.44a2.2,2.2,0,0,0,2.2,2.2H18.512c.036.027.073.053.11.078L36.266,74.986a2.193,2.193,0,0,0,2.437,0S56.421,63.172,56.456,63.145H72.772a2.2,2.2,0,0,0,2.2-2.2V4.509A4.219,4.219,0,0,0,70.576.5ZM22.037,45.8l13.251,8.835V69.055L22.037,60.221Zm15.448,5.02L23.8,41.694l13.685-9.123,13.685,9.123Zm2.2,18.238V54.632L52.932,45.8V60.221Zm30.9-10.3H57.325V41.694c0-.042,0-.08,0-.117a2.2,2.2,0,0,0-.975-1.71L38.7,28.1a2.2,2.2,0,0,0-2.437,0L18.622,39.866a2.2,2.2,0,0,0-.975,1.709c0,.038,0,.077,0,.119V58.752H4.393V22.464H70.576Zm0-40.682H4.393V4.893H70.576Zm0,0" fill="#392577"/><path d="M424.2,64.893a2.2,2.2,0,1,0-2.2-2.2A2.2,2.2,0,0,0,424.2,64.893Zm0,0" transform="translate(-360.209 -51.215)" fill="#392577"/><path d="M364.2,64.893a2.2,2.2,0,1,0-2.2-2.2A2.2,2.2,0,0,0,364.2,64.893Zm0,0" transform="translate(-308.995 -51.215)" fill="#392577"/><path d="M304.2,64.893a2.2,2.2,0,1,0-2.2-2.2A2.2,2.2,0,0,0,304.2,64.893Zm0,0" transform="translate(-257.78 -51.215)" fill="#392577"/></g></svg>