<svg xmlns="http://www.w3.org/2000/svg" width="20.989" height="15.392" viewBox="0 0 20.989 15.392"><path d="M20.076,81.678A4.138,4.138,0,0,0,17.742,80.2a2.794,2.794,0,0,0-2.35-4.307,2.672,2.672,0,0,0-1.815.678A5.6,5.6,0,0,0,8.4,73.091a5.393,5.393,0,0,0-3.957,1.64A5.392,5.392,0,0,0,2.8,78.688q0,.142.022.47A4.889,4.889,0,0,0,0,83.586a4.716,4.716,0,0,0,1.438,3.46A4.715,4.715,0,0,0,4.9,88.483H16.791a4.193,4.193,0,0,0,3.285-6.805Zm-6.187-.295a.337.337,0,0,1-.246.1H11.194v3.848a.355.355,0,0,1-.35.35h-2.1a.355.355,0,0,1-.35-.35V81.486H5.947a.336.336,0,0,1-.35-.35.411.411,0,0,1,.109-.262l3.837-3.837a.37.37,0,0,1,.5,0l3.848,3.848a.34.34,0,0,1,.1.252A.336.336,0,0,1,13.889,81.383Z" transform="translate(0 -73.091)" fill="#1b1d1e"/></svg>