<svg xmlns="http://www.w3.org/2000/svg" width="11.014" height="11.007" viewBox="0 0 11.014 11.007">
  <g id="Group_539" data-name="Group 539" transform="translate(0 0)">
    <path id="Path_25" data-name="Path 25" d="M11.008,8.874a.532.532,0,0,1-.163.466L9.294,10.88a.873.873,0,0,1-.274.2,1.132,1.132,0,0,1-.332.1l-.07.006q-.058.006-.152.006a5.375,5.375,0,0,1-.717-.076,5.446,5.446,0,0,1-1.213-.373,10.178,10.178,0,0,1-1.627-.892A12.127,12.127,0,0,1,2.975,8.221,12.776,12.776,0,0,1,1.623,6.682,10.966,10.966,0,0,1,.76,5.324,7.316,7.316,0,0,1,.27,4.193a6,6,0,0,1-.222-.874A2.888,2.888,0,0,1,0,2.741q.012-.21.012-.233a1.133,1.133,0,0,1,.1-.332.874.874,0,0,1,.2-.274L1.867.351A.514.514,0,0,1,2.241.188a.435.435,0,0,1,.268.087.811.811,0,0,1,.2.216L3.954,2.858a.567.567,0,0,1,.058.408.727.727,0,0,1-.2.373l-.571.571a.194.194,0,0,0-.041.076.288.288,0,0,0-.017.087,2.105,2.105,0,0,0,.21.56,5.137,5.137,0,0,0,.431.682,7.573,7.573,0,0,0,.828.927,7.723,7.723,0,0,0,.933.834,5.387,5.387,0,0,0,.682.437,1.813,1.813,0,0,0,.42.169l.146.029a.278.278,0,0,0,.076-.017.2.2,0,0,0,.076-.041l.665-.676a.714.714,0,0,1,.49-.187.609.609,0,0,1,.315.07h.012l2.25,1.329A.587.587,0,0,1,11.008,8.874Z" transform="translate(0 -0.188)" fill="#fff"/>
  </g>
</svg>
