<svg xmlns="http://www.w3.org/2000/svg" width="8.939" height="11.189" viewBox="0 0 8.939 11.189">
    <path d="M7.889,7.931a.47.47,0,0,1,.013.057c.158.9.573,1.276,1.366,1.276,1.265,0,2.553-1.57,2.553-3.207,0-1.706-1.374-2.939-3.6-2.939a2.959,2.959,0,0,0-3.1,2.939,1.99,1.99,0,0,0,.42,1.473.559.559,0,1,1-.759.82A2.994,2.994,0,0,1,4,6.056,4.067,4.067,0,0,1,8.222,2c2.818,0,4.718,1.7,4.718,4.056,0,2.21-1.734,4.324-3.671,4.324a2.337,2.337,0,0,1-1.783-.7l-.707,3.062a.559.559,0,1,1-1.088-.251L7.367,5.227a.559.559,0,0,1,1.088.251Z"
          transform="translate(-4 -2)" fill="#fff"/>
</svg>