<svg xmlns="http://www.w3.org/2000/svg" xmlns:xlink="http://www.w3.org/1999/xlink" width="285.218" height="201.819" viewBox="0 0 285.218 201.819"><defs><clipPath id="a"><rect width="259.176" height="26.239" transform="translate(0 183.265) rotate(-45)" fill="none"/></clipPath><radialGradient id="b" cx="126.665" cy="8.032" r="1997.291" gradientTransform="translate(118.633 8) scale(0.063 0.004)" gradientUnits="userSpaceOnUse"><stop offset="0" stop-color="#231f20"/><stop offset="0.029" stop-color="#2b2728"/><stop offset="0.3" stop-color="#757373"/><stop offset="0.543" stop-color="#b0afaf"/><stop offset="0.747" stop-color="#dbdada"/><stop offset="0.906" stop-color="#f5f5f5"/><stop offset="1" stop-color="#fff"/></radialGradient></defs><g transform="translate(-394 -2398.5)"><g transform="translate(36.885 593)"><g transform="translate(419.12 1862.61)" opacity="0.25" style="mix-blend-mode:multiply;isolation:isolate"><path d="M313.537,153.009a1.882,1.882,0,0,0-3.263,1.28v8.523H176.827L127.645,212H310.274v8.523a1.882,1.882,0,0,0,3.263,1.28L345.394,187.4Z" transform="translate(-127.645 -146.939)" fill="#fff"/><path d="M313.573,152.975a1.882,1.882,0,0,0-3.263,1.278v8.524H176.863L127.679,211.96H310.31v8.523a1.882,1.882,0,0,0,3.263,1.28l31.857-34.394Z" transform="translate(-127.626 -146.958)" fill="#fcfcfc"/><path d="M313.608,152.94a1.883,1.883,0,0,0-3.264,1.279v8.524H176.9l-49.184,49.182H310.343v8.524a1.883,1.883,0,0,0,3.264,1.279l31.857-34.394Z" transform="translate(-127.607 -146.977)" fill="#fafafa"/><path d="M313.643,152.9a1.883,1.883,0,0,0-3.265,1.279v8.524H176.931L127.749,211.89H310.378v8.524a1.883,1.883,0,0,0,3.265,1.279L345.5,187.3Z" transform="translate(-127.588 -146.997)" fill="#f7f7f7"/><path d="M313.678,152.87a1.883,1.883,0,0,0-3.265,1.28v8.523H176.966l-49.182,49.182H310.413v8.524a1.883,1.883,0,0,0,3.265,1.279l31.857-34.394Z" transform="translate(-127.568 -147.016)" fill="#f5f5f5"/><path d="M313.713,152.835a1.883,1.883,0,0,0-3.265,1.28v8.523H177l-49.182,49.184H310.448v8.523a1.883,1.883,0,0,0,3.265,1.279l31.856-34.394Z" transform="translate(-127.549 -147.035)" fill="#f2f2f2"/><path d="M313.748,152.8a1.883,1.883,0,0,0-3.264,1.28V162.6H177.036l-49.182,49.184H310.483v8.523a1.883,1.883,0,0,0,3.264,1.28l31.856-34.4Z" transform="translate(-127.53 -147.054)" fill="#f0f0f0"/><path d="M313.781,152.765a1.882,1.882,0,0,0-3.263,1.28v8.524H177.071l-49.182,49.182H310.518v8.523a1.882,1.882,0,0,0,3.263,1.28l31.857-34.394Z" transform="translate(-127.51 -147.073)" fill="#ededed"/><path d="M313.817,152.731a1.882,1.882,0,0,0-3.263,1.279v8.524H177.107l-49.184,49.182H310.554v8.523a1.882,1.882,0,0,0,3.263,1.28l31.857-34.394Z" transform="translate(-127.492 -147.093)" fill="#ebebeb"/><path d="M313.852,152.7a1.883,1.883,0,0,0-3.265,1.279V162.5H177.142l-49.184,49.182H310.587V220.2a1.883,1.883,0,0,0,3.265,1.28l31.857-34.394Z" transform="translate(-127.472 -147.112)" fill="#e8e8e8"/><path d="M313.887,152.661a1.883,1.883,0,0,0-3.265,1.278v8.524H177.175l-49.182,49.182H310.622v8.524a1.883,1.883,0,0,0,3.265,1.279l31.857-34.394Z" transform="translate(-127.453 -147.131)" fill="#e6e6e6"/><path d="M313.922,152.626a1.883,1.883,0,0,0-3.265,1.278v8.524H177.21l-49.182,49.182H310.657v8.524a1.883,1.883,0,0,0,3.265,1.279l31.857-34.394Z" transform="translate(-127.434 -147.15)" fill="#e3e3e3"/><path d="M313.957,152.591a1.883,1.883,0,0,0-3.264,1.28v8.523H177.245l-49.182,49.182H310.692V220.1a1.883,1.883,0,0,0,3.264,1.279l31.856-34.394Z" transform="translate(-127.414 -147.17)" fill="#e1e1e1"/><path d="M313.992,152.556a1.883,1.883,0,0,0-3.265,1.28v8.523H177.28L128.1,211.542H310.727v8.523a1.883,1.883,0,0,0,3.265,1.28l31.856-34.4Z" transform="translate(-127.395 -147.189)" fill="#dedede"/><path d="M314.025,152.521a1.882,1.882,0,0,0-3.263,1.28v8.523H177.315l-49.182,49.184H310.762v8.523a1.882,1.882,0,0,0,3.263,1.28l31.857-34.4Z" transform="translate(-127.376 -147.208)" fill="#dcdcdc"/><path d="M314.061,152.486a1.883,1.883,0,0,0-3.263,1.28v8.524H177.351l-49.184,49.182H310.8v8.523a1.882,1.882,0,0,0,3.263,1.28l31.857-34.394Z" transform="translate(-127.357 -147.227)" fill="#d9d9d9"/><path d="M314.1,152.452a1.882,1.882,0,0,0-3.263,1.279v8.524H177.386L128.2,211.437H310.833v8.523a1.882,1.882,0,0,0,3.263,1.28l31.857-34.394Z" transform="translate(-127.338 -147.246)" fill="#d7d7d7"/><path d="M314.131,152.417a1.883,1.883,0,0,0-3.265,1.279v8.524H177.419L128.237,211.4H310.866v8.524a1.883,1.883,0,0,0,3.265,1.279l31.857-34.394Z" transform="translate(-127.318 -147.266)" fill="#d4d4d4"/><path d="M314.166,152.382a1.883,1.883,0,0,0-3.264,1.279v8.524H177.454l-49.182,49.182H310.9v8.524a1.883,1.883,0,0,0,3.264,1.279l31.857-34.394Z" transform="translate(-127.299 -147.285)" fill="#d2d2d2"/><path d="M314.2,152.347a1.883,1.883,0,0,0-3.265,1.28v8.523H177.489l-49.182,49.182H310.936v8.524a1.883,1.883,0,0,0,3.265,1.279l31.856-34.394Z" transform="translate(-127.28 -147.304)" fill="#cfcfcf"/><path d="M314.236,152.312a1.883,1.883,0,0,0-3.265,1.28v8.523H177.524L128.342,211.3H310.971v8.523a1.883,1.883,0,0,0,3.265,1.28l31.856-34.4Z" transform="translate(-127.261 -147.323)" fill="#cdcdcd"/><path d="M314.271,152.277a1.883,1.883,0,0,0-3.265,1.28v8.523H177.559l-49.182,49.184H311.006v8.523a1.883,1.883,0,0,0,3.265,1.28l31.856-34.394Z" transform="translate(-127.241 -147.343)" fill="#cacaca"/><path d="M314.3,152.242a1.882,1.882,0,0,0-3.263,1.28v8.524H177.595l-49.184,49.182H311.042v8.523a1.882,1.882,0,0,0,3.263,1.28l31.857-34.394Z" transform="translate(-127.222 -147.362)" fill="#c7c7c7"/><path d="M314.34,152.208a1.882,1.882,0,0,0-3.263,1.278v8.524H177.63l-49.184,49.182H311.077v8.523A1.882,1.882,0,0,0,314.34,221L346.2,186.6Z" transform="translate(-127.203 -147.381)" fill="#c5c5c5"/><path d="M314.375,152.173a1.883,1.883,0,0,0-3.264,1.279v8.524H177.663l-49.182,49.182H311.11v8.524a1.883,1.883,0,0,0,3.264,1.279l31.857-34.394Z" transform="translate(-127.184 -147.4)" fill="#c2c2c2"/><path d="M314.41,152.138a1.883,1.883,0,0,0-3.265,1.28v8.523H177.7l-49.182,49.182H311.145v8.524a1.883,1.883,0,0,0,3.265,1.279l31.857-34.394Z" transform="translate(-127.165 -147.42)" fill="silver"/><path d="M314.445,152.1a1.883,1.883,0,0,0-3.265,1.28v8.523H177.733l-49.182,49.182H311.18v8.524a1.883,1.883,0,0,0,3.265,1.278L346.3,186.5Z" transform="translate(-127.145 -147.439)" fill="#bdbdbd"/><path d="M314.48,152.068a1.883,1.883,0,0,0-3.265,1.28v8.523H177.768l-49.182,49.182H311.215v8.524a1.883,1.883,0,0,0,3.265,1.279l31.856-34.394Z" transform="translate(-127.126 -147.458)" fill="#bbb"/><path d="M314.515,152.033a1.883,1.883,0,0,0-3.264,1.28v8.523H177.8l-49.182,49.184H311.25v8.523a1.883,1.883,0,0,0,3.264,1.28l31.856-34.4Z" transform="translate(-127.107 -147.477)" fill="#b8b8b8"/><path d="M314.548,152a1.882,1.882,0,0,0-3.263,1.279V161.8H177.838l-49.182,49.182H311.285v8.523a1.882,1.882,0,0,0,3.263,1.28l31.857-34.394Z" transform="translate(-127.087 -147.496)" fill="#b6b6b6"/><path d="M314.584,151.964a1.882,1.882,0,0,0-3.263,1.279v8.524H177.874L128.69,210.949H311.321v8.523a1.882,1.882,0,0,0,3.263,1.28l31.857-34.394Z" transform="translate(-127.069 -147.516)" fill="#b3b3b3"/><path d="M314.619,151.929a1.883,1.883,0,0,0-3.265,1.279v8.524H177.909l-49.184,49.182H311.354v8.523a1.883,1.883,0,0,0,3.265,1.28l31.857-34.394Z" transform="translate(-127.049 -147.535)" fill="#b1b1b1"/><path d="M314.654,151.894a1.883,1.883,0,0,0-3.265,1.279V161.7H177.942L128.76,210.879H311.389V219.4a1.883,1.883,0,0,0,3.265,1.278l31.857-34.394Z" transform="translate(-127.03 -147.554)" fill="#aeaeae"/><path d="M314.689,151.859a1.883,1.883,0,0,0-3.265,1.28v8.523H177.977l-49.182,49.182H311.424v8.524a1.883,1.883,0,0,0,3.265,1.279l31.857-34.394Z" transform="translate(-127.011 -147.573)" fill="#acacac"/><path d="M314.724,151.824a1.883,1.883,0,0,0-3.265,1.28v8.523H178.012L128.83,210.809H311.459v8.524a1.883,1.883,0,0,0,3.265,1.279l31.856-34.394Z" transform="translate(-126.991 -147.593)" fill="#a9a9a9"/><path d="M314.759,151.789a1.883,1.883,0,0,0-3.265,1.28v8.523H178.047l-49.182,49.184H311.494V219.3a1.883,1.883,0,0,0,3.265,1.28l31.856-34.4Z" transform="translate(-126.972 -147.612)" fill="#a7a7a7"/><path d="M314.792,151.754a1.882,1.882,0,0,0-3.263,1.28v8.523H178.082L128.9,210.74H311.529v8.523a1.882,1.882,0,0,0,3.263,1.28l31.857-34.394Z" transform="translate(-126.953 -147.631)" fill="#a4a4a4"/><path d="M314.828,151.72A1.882,1.882,0,0,0,311.565,153v8.524H178.118L128.934,210.7H311.565v8.523a1.882,1.882,0,0,0,3.263,1.28l31.857-34.394Z" transform="translate(-126.934 -147.65)" fill="#a2a2a2"/><path d="M314.863,151.685a1.883,1.883,0,0,0-3.265,1.279v8.524H178.153L128.969,210.67H311.6v8.523a1.883,1.883,0,0,0,3.265,1.28l31.857-34.394Z" transform="translate(-126.915 -147.669)" fill="#9f9f9f"/><path d="M314.9,151.65a1.883,1.883,0,0,0-3.265,1.278v8.524H178.186L129,210.635H311.633v8.524a1.883,1.883,0,0,0,3.265,1.279l31.857-34.394Z" transform="translate(-126.895 -147.689)" fill="#9d9d9d"/><path d="M314.933,151.615a1.883,1.883,0,0,0-3.265,1.28v8.523H178.221L129.039,210.6H311.668v8.524a1.883,1.883,0,0,0,3.265,1.279l31.857-34.394Z" transform="translate(-126.876 -147.708)" fill="#9a9a9a"/><path d="M314.968,151.58a1.883,1.883,0,0,0-3.265,1.28v8.523H178.256l-49.182,49.182H311.7v8.524a1.883,1.883,0,0,0,3.265,1.279l31.856-34.394Z" transform="translate(-126.857 -147.727)" fill="#979797"/><path d="M315,151.545a1.883,1.883,0,0,0-3.265,1.28v8.523H178.291l-49.182,49.184H311.738v8.523A1.883,1.883,0,0,0,315,220.333l31.856-34.394Z" transform="translate(-126.837 -147.746)" fill="#959595"/><path d="M315.036,151.51a1.882,1.882,0,0,0-3.263,1.28v8.523H178.326L129.144,210.5H311.773v8.523a1.882,1.882,0,0,0,3.263,1.28l31.857-34.394Z" transform="translate(-126.818 -147.766)" fill="#929292"/><path d="M315.072,151.476a1.882,1.882,0,0,0-3.263,1.279v8.524H178.362l-49.184,49.182H311.809v8.523a1.882,1.882,0,0,0,3.263,1.28l31.857-34.394Z" transform="translate(-126.799 -147.785)" fill="#909090"/><path d="M315.107,151.441a1.882,1.882,0,0,0-3.263,1.278v8.524H178.4l-49.184,49.182H311.844v8.523a1.882,1.882,0,0,0,3.263,1.28l31.857-34.394Z" transform="translate(-126.78 -147.804)" fill="#8d8d8d"/><path d="M315.142,151.406a1.883,1.883,0,0,0-3.265,1.279v8.524H178.43l-49.182,49.182H311.877v8.524a1.883,1.883,0,0,0,3.265,1.279L347,185.8Z" transform="translate(-126.761 -147.823)" fill="#8b8b8b"/><path d="M315.177,151.371a1.883,1.883,0,0,0-3.265,1.28v8.523H178.465l-49.182,49.182H311.912v8.524a1.883,1.883,0,0,0,3.265,1.279l31.857-34.394Z" transform="translate(-126.742 -147.843)" fill="#888"/><path d="M315.212,151.336a1.883,1.883,0,0,0-3.265,1.28v8.523H178.5l-49.182,49.182H311.947v8.524a1.883,1.883,0,0,0,3.265,1.278l31.856-34.394Z" transform="translate(-126.722 -147.862)" fill="#868686"/><path d="M315.247,151.3a1.883,1.883,0,0,0-3.265,1.28V161.1H178.535l-49.182,49.182H311.982v8.524a1.883,1.883,0,0,0,3.265,1.279L347.1,185.695Z" transform="translate(-126.703 -147.881)" fill="#838383"/><path d="M315.282,151.266a1.883,1.883,0,0,0-3.265,1.28v8.523H178.57l-49.182,49.184H312.017v8.523a1.883,1.883,0,0,0,3.265,1.28l31.856-34.4Z" transform="translate(-126.684 -147.9)" fill="#818181"/><path d="M315.316,151.232a1.882,1.882,0,0,0-3.263,1.279v8.523H178.606l-49.184,49.184H312.053v8.523a1.882,1.882,0,0,0,3.263,1.28l31.857-34.394Z" transform="translate(-126.665 -147.919)" fill="#7e7e7e"/><path d="M315.351,151.2a1.882,1.882,0,0,0-3.263,1.279V161H178.641l-49.184,49.182H312.088V218.7a1.882,1.882,0,0,0,3.263,1.28l31.857-34.394Z" transform="translate(-126.646 -147.939)" fill="#7c7c7c"/><path d="M315.386,151.162a1.883,1.883,0,0,0-3.265,1.279v8.524H178.674l-49.182,49.182H312.121v8.524a1.883,1.883,0,0,0,3.265,1.279l31.857-34.394Z" transform="translate(-126.626 -147.958)" fill="#797979"/><path d="M315.421,151.127a1.883,1.883,0,0,0-3.265,1.279v8.524H178.709l-49.182,49.182H312.156v8.524a1.883,1.883,0,0,0,3.265,1.278l31.857-34.394Z" transform="translate(-126.607 -147.977)" fill="#777"/><path d="M315.456,151.092a1.883,1.883,0,0,0-3.265,1.28v8.523H178.744l-49.182,49.182H312.191V218.6a1.883,1.883,0,0,0,3.265,1.279l31.856-34.394Z" transform="translate(-126.588 -147.996)" fill="#747474"/><path d="M315.491,151.057a1.883,1.883,0,0,0-3.265,1.28v8.523H178.779L129.6,210.043H312.226v8.523a1.884,1.884,0,0,0,3.265,1.28l31.856-34.4Z" transform="translate(-126.568 -148.016)" fill="#727272"/><path d="M315.526,151.022a1.883,1.883,0,0,0-3.265,1.28v8.523H178.814l-49.182,49.184H312.261v8.523a1.883,1.883,0,0,0,3.265,1.28l31.856-34.4Z" transform="translate(-126.549 -148.035)" fill="#6f6f6f"/><path d="M315.559,150.987a1.882,1.882,0,0,0-3.263,1.28v8.524H178.849l-49.182,49.182H312.3V218.5a1.882,1.882,0,0,0,3.263,1.28l31.857-34.394Z" transform="translate(-126.53 -148.054)" fill="#6d6d6d"/><path d="M315.595,150.953a1.882,1.882,0,0,0-3.263,1.279v8.524H178.885L129.7,209.938H312.332v8.523a1.882,1.882,0,0,0,3.263,1.28l31.857-34.394Z" transform="translate(-126.511 -148.073)" fill="#6a6a6a"/><path d="M315.63,150.918a1.883,1.883,0,0,0-3.265,1.279v8.524H178.92L129.736,209.9H312.365v8.524a1.883,1.883,0,0,0,3.265,1.278l31.857-34.394Z" transform="translate(-126.492 -148.092)" fill="#686868"/><path d="M315.665,150.883a1.883,1.883,0,0,0-3.265,1.278v8.524H178.953l-49.182,49.182H312.4v8.524a1.883,1.883,0,0,0,3.265,1.279l31.857-34.394Z" transform="translate(-126.472 -148.112)" fill="#656565"/><path d="M315.7,150.848a1.883,1.883,0,0,0-3.265,1.28v8.523H178.988l-49.182,49.182H312.435v8.524a1.883,1.883,0,0,0,3.265,1.279l31.857-34.394Z" transform="translate(-126.453 -148.131)" fill="#626262"/><path d="M315.735,150.813a1.883,1.883,0,0,0-3.265,1.28v8.523H179.023L129.841,209.8H312.47v8.523a1.883,1.883,0,0,0,3.265,1.279l31.856-34.394Z" transform="translate(-126.434 -148.15)" fill="#606060"/><path d="M315.77,150.778a1.883,1.883,0,0,0-3.265,1.28v8.523H179.058l-49.182,49.184H312.505v8.523a1.883,1.883,0,0,0,3.265,1.28l31.856-34.4Z" transform="translate(-126.414 -148.169)" fill="#5d5d5d"/><path d="M315.8,150.743a1.882,1.882,0,0,0-3.263,1.28v8.524H179.093l-49.182,49.182H312.54v8.523a1.882,1.882,0,0,0,3.263,1.28l31.857-34.394Z" transform="translate(-126.395 -148.189)" fill="#5b5b5b"/><path d="M315.839,150.709a1.882,1.882,0,0,0-3.263,1.279v8.524H179.129l-49.184,49.182H312.576v8.523a1.882,1.882,0,0,0,3.263,1.28L347.7,185.1Z" transform="translate(-126.376 -148.208)" fill="#585858"/><path d="M315.874,150.674a1.883,1.883,0,0,0-3.265,1.279v8.524H179.164L129.98,209.659H312.609v8.523a1.883,1.883,0,0,0,3.265,1.28l31.857-34.394Z" transform="translate(-126.357 -148.227)" fill="#565656"/><path d="M315.909,150.639a1.883,1.883,0,0,0-3.265,1.278v8.524H179.2l-49.182,49.182H312.644v8.524a1.883,1.883,0,0,0,3.265,1.279l31.857-34.394Z" transform="translate(-126.338 -148.246)" fill="#535353"/><path d="M315.944,150.6a1.883,1.883,0,0,0-3.265,1.279v8.524H179.232L130.05,209.589H312.679v8.524a1.883,1.883,0,0,0,3.265,1.279L347.8,185Z" transform="translate(-126.318 -148.266)" fill="#515151"/><path d="M315.979,150.569a1.883,1.883,0,0,0-3.265,1.28v8.523H179.267l-49.182,49.182H312.714v8.524a1.883,1.883,0,0,0,3.265,1.278l31.856-34.394Z" transform="translate(-126.299 -148.285)" fill="#4e4e4e"/><path d="M316.014,150.534a1.883,1.883,0,0,0-3.265,1.28v8.523H179.3L130.12,209.52H312.749v8.523a1.883,1.883,0,0,0,3.265,1.28l31.856-34.4Z" transform="translate(-126.28 -148.304)" fill="#4c4c4c"/><path d="M316.047,150.5a1.882,1.882,0,0,0-3.263,1.28V160.3H179.337l-49.182,49.184H312.784v8.523a1.882,1.882,0,0,0,3.263,1.28l31.857-34.4Z" transform="translate(-126.261 -148.323)" fill="#494949"/><path d="M316.083,150.464a1.883,1.883,0,0,0-3.263,1.28v8.524H179.373L130.189,209.45H312.82v8.523a1.882,1.882,0,0,0,3.263,1.28l31.857-34.394Z" transform="translate(-126.242 -148.343)" fill="#474747"/><path d="M316.118,150.43a1.882,1.882,0,0,0-3.263,1.279v8.524H179.408l-49.184,49.182H312.855v8.523a1.882,1.882,0,0,0,3.263,1.28l31.857-34.394Z" transform="translate(-126.222 -148.362)" fill="#444"/><path d="M316.153,150.395a1.883,1.883,0,0,0-3.265,1.279V160.2H179.441L130.259,209.38H312.888V217.9a1.883,1.883,0,0,0,3.265,1.279l31.857-34.394Z" transform="translate(-126.203 -148.381)" fill="#424242"/><path d="M316.188,150.36a1.883,1.883,0,0,0-3.265,1.279v8.524H179.476l-49.182,49.182H312.923v8.524a1.883,1.883,0,0,0,3.265,1.278l31.857-34.394Z" transform="translate(-126.184 -148.4)" fill="#3f3f3f"/><path d="M316.223,150.325a1.883,1.883,0,0,0-3.265,1.28v8.523H179.511L130.329,209.31H312.958v8.524a1.883,1.883,0,0,0,3.265,1.279l31.856-34.394Z" transform="translate(-126.165 -148.42)" fill="#3d3d3d"/><path d="M316.258,150.29a1.883,1.883,0,0,0-3.265,1.28v8.523H179.546l-49.182,49.184H312.993V217.8a1.883,1.883,0,0,0,3.265,1.279l31.856-34.394Z" transform="translate(-126.145 -148.439)" fill="#3a3a3a"/><path d="M316.293,150.255a1.883,1.883,0,0,0-3.265,1.28v8.523H179.581L130.4,209.241H313.028v8.523a1.883,1.883,0,0,0,3.265,1.28l31.856-34.394Z" transform="translate(-126.126 -148.458)" fill="#383838"/><path d="M316.327,150.221a1.882,1.882,0,0,0-3.263,1.279v8.524H179.617l-49.184,49.182H313.064v8.523a1.882,1.882,0,0,0,3.263,1.28l31.857-34.394Z" transform="translate(-126.107 -148.477)" fill="#353535"/><path d="M316.362,150.186a1.882,1.882,0,0,0-3.263,1.279v8.524H179.652l-49.184,49.182H313.1v8.523a1.882,1.882,0,0,0,3.263,1.28l31.857-34.394Z" transform="translate(-126.088 -148.496)" fill="#323232"/><path d="M316.4,150.151a1.883,1.883,0,0,0-3.265,1.279v8.524H179.685L130.5,209.136H313.132v8.523a1.883,1.883,0,0,0,3.265,1.28l31.857-34.394Z" transform="translate(-126.069 -148.516)" fill="#303030"/><path d="M316.432,150.116a1.883,1.883,0,0,0-3.265,1.28v8.523H179.72L130.538,209.1H313.167v8.524a1.883,1.883,0,0,0,3.265,1.279l31.857-34.394Z" transform="translate(-126.049 -148.535)" fill="#2d2d2d"/><path d="M316.467,150.081a1.883,1.883,0,0,0-3.265,1.28v8.523H179.755l-49.182,49.182H313.2v8.524a1.883,1.883,0,0,0,3.265,1.279l31.856-34.394Z" transform="translate(-126.03 -148.554)" fill="#2b2b2b"/><path d="M316.5,150.046a1.883,1.883,0,0,0-3.265,1.28v8.523H179.79l-49.182,49.182H313.237v8.524a1.883,1.883,0,0,0,3.265,1.279l31.856-34.394Z" transform="translate(-126.011 -148.573)" fill="#282828"/><path d="M316.537,150.011a1.883,1.883,0,0,0-3.265,1.28v8.523H179.825L130.643,209H313.272v8.523a1.883,1.883,0,0,0,3.265,1.28l31.856-34.4Z" transform="translate(-125.991 -148.593)" fill="#262626"/><path d="M316.57,149.977a1.882,1.882,0,0,0-3.263,1.279v8.523H179.86l-49.182,49.184H313.307v8.523a1.882,1.882,0,0,0,3.263,1.28l31.857-34.394Z" transform="translate(-125.972 -148.612)" fill="#232323"/><path d="M316.606,149.942a1.882,1.882,0,0,0-3.263,1.279v8.524H179.9l-49.184,49.182H313.343v8.523a1.882,1.882,0,0,0,3.263,1.28l31.857-34.394Z" transform="translate(-125.953 -148.631)" fill="#212121"/><path d="M316.641,149.907a1.883,1.883,0,0,0-3.265,1.279v8.524H179.931l-49.184,49.182H313.376v8.523a1.883,1.883,0,0,0,3.265,1.28L348.5,184.3Z" transform="translate(-125.934 -148.65)" fill="#1e1e1e"/><path d="M316.676,149.872a1.883,1.883,0,0,0-3.265,1.278v8.524H179.964l-49.182,49.182H313.411v8.524a1.883,1.883,0,0,0,3.265,1.279l31.857-34.394Z" transform="translate(-125.915 -148.669)" fill="#1c1c1c"/><path d="M316.711,149.837a1.883,1.883,0,0,0-3.265,1.28v8.523H180l-49.182,49.182H313.446v8.524a1.883,1.883,0,0,0,3.265,1.279l31.857-34.394Z" transform="translate(-125.895 -148.689)" fill="#191919"/><path d="M316.746,149.8a1.883,1.883,0,0,0-3.265,1.28V159.6H180.034l-49.182,49.182H313.481v8.524a1.884,1.884,0,0,0,3.265,1.28L348.6,184.2Z" transform="translate(-125.876 -148.708)" fill="#171717"/><path d="M316.781,149.767a1.883,1.883,0,0,0-3.265,1.28v8.523H180.069l-49.182,49.184H313.516v8.523a1.883,1.883,0,0,0,3.265,1.28l31.856-34.4Z" transform="translate(-125.857 -148.727)" fill="#141414"/><path d="M316.814,149.732a1.882,1.882,0,0,0-3.263,1.28v8.523H180.1l-49.182,49.184H313.551v8.523a1.882,1.882,0,0,0,3.263,1.28l31.857-34.394Z" transform="translate(-125.837 -148.746)" fill="#121212"/><path d="M316.85,149.7a1.882,1.882,0,0,0-3.263,1.279V159.5H180.14l-49.184,49.182H313.587v8.523a1.882,1.882,0,0,0,3.263,1.28l31.857-34.394Z" transform="translate(-125.819 -148.765)" fill="#0f0f0f"/><path d="M316.885,149.663a1.883,1.883,0,0,0-3.265,1.278v8.524H180.175l-49.184,49.182H313.62v8.524a1.883,1.883,0,0,0,3.265,1.279l31.857-34.394Z" transform="translate(-125.799 -148.785)" fill="#0d0d0d"/><path d="M316.92,149.628a1.883,1.883,0,0,0-3.265,1.278v8.524H180.208l-49.182,49.182H313.655v8.524a1.883,1.883,0,0,0,3.265,1.279l31.857-34.394Z" transform="translate(-125.78 -148.804)" fill="#0a0a0a"/><path d="M316.955,149.593a1.883,1.883,0,0,0-3.265,1.28V159.4H180.243l-49.182,49.182H313.69V217.1a1.883,1.883,0,0,0,3.265,1.279l31.857-34.394Z" transform="translate(-125.761 -148.823)" fill="#080808"/><path d="M316.99,149.558a1.883,1.883,0,0,0-3.265,1.28v8.523H180.278L131.1,208.543H313.725v8.524a1.883,1.883,0,0,0,3.265,1.279l31.856-34.394Z" transform="translate(-125.741 -148.842)" fill="#050505"/><path d="M317.025,149.523a1.883,1.883,0,0,0-3.265,1.28v8.523H180.313l-49.182,49.184H313.76v8.523a1.883,1.883,0,0,0,3.265,1.28l31.856-34.4Z" transform="translate(-125.722 -148.862)" fill="#030303"/><path d="M317.058,149.488a1.882,1.882,0,0,0-3.263,1.28v8.523H180.348l-49.182,49.184H313.8V217a1.882,1.882,0,0,0,3.263,1.28l31.857-34.394Z" transform="translate(-125.703 -148.881)"/></g><path d="M317.058,149.488a1.882,1.882,0,0,0-3.263,1.28v8.523H180.348l-49.182,49.184H313.8V217a1.882,1.882,0,0,0,3.263,1.28l31.857-34.394Z" transform="translate(293.418 1713.729)" fill="#6548bc"/><g transform="translate(357.115 1805.5)" opacity="0.5"><g clip-path="url(#a)"><ellipse cx="126.665" cy="8.032" rx="126.665" ry="8.032" transform="translate(-1.546 173.452) rotate(-45)" fill="url(#b)" style="mix-blend-mode:multiply;isolation:isolate"/></g></g></g></g></svg>