<svg xmlns="http://www.w3.org/2000/svg" width="13.699" height="10.959" viewBox="0 0 13.699 10.959">
    <g transform="translate(0 0)">
        <path d="M8.308,7371.959a7.879,7.879,0,0,0,8-7.875c0-.119,0-.239-.008-.357a5.69,5.69,0,0,0,1.4-1.432,5.664,5.664,0,0,1-1.614.435,2.789,2.789,0,0,0,1.236-1.531,5.655,5.655,0,0,1-1.785.672,2.845,2.845,0,0,0-3.977-.12,2.743,2.743,0,0,0-.813,2.644,8.026,8.026,0,0,1-5.792-2.891,2.743,2.743,0,0,0,.871,3.693,2.816,2.816,0,0,1-1.276-.346v.035A2.78,2.78,0,0,0,6.8,7367.6a2.826,2.826,0,0,1-1.268.047,2.808,2.808,0,0,0,2.625,1.922,5.7,5.7,0,0,1-3.49,1.187,5.905,5.905,0,0,1-.669-.04,8.05,8.05,0,0,0,4.308,1.241"
              transform="translate(-4 -7361)" fill="#fff" fill-rule="evenodd"/>
    </g>
</svg>