<svg xmlns="http://www.w3.org/2000/svg" width="75.334" height="82.182" viewBox="0 0 75.334 82.182">
  <g id="speaker" transform="translate(-21.333)">
    <g id="Group_6255" data-name="Group 6255" transform="translate(21.333)">
      <g id="Group_6254" data-name="Group 6254">
        <path id="Path_18628" data-name="Path 18628" d="M193.318,23.97a11.985,11.985,0,1,0-11.985-11.985A12,12,0,0,0,193.318,23.97Zm0-20.546a8.561,8.561,0,1,1-8.561,8.561A8.57,8.57,0,0,1,193.318,3.424Z" transform="translate(-155.651)" fill="#392577"/>
        <path id="Path_18629" data-name="Path 18629" d="M89.836,134.063c.016-1.138.039-2.236.066-3.254.178-7,.244-11.785-4.067-16.724a5.073,5.073,0,0,0,.559-2.282,5.136,5.136,0,1,0-5.136,5.136,5.087,5.087,0,0,0,2.123-.472c3.321,3.911,3.266,7.737,3.1,14.253-.027,1.045-.05,2.172-.066,3.341H82.97V131a10.278,10.278,0,0,0-5.564-9.156c-4.31-2.235-11-4.9-18.405-4.9s-14.1,2.665-18.405,4.9A10.278,10.278,0,0,0,35.03,131v3.065H31.736c-.016-1.169-.039-2.3-.066-3.341-.169-6.516-.224-10.342,3.1-14.253a5.087,5.087,0,0,0,2.123.472,5.136,5.136,0,1,0-5.136-5.136,5.073,5.073,0,0,0,.559,2.282c-4.31,4.938-4.245,9.725-4.067,16.724.027,1.018.05,2.115.066,3.252h-.129a6.856,6.856,0,0,0-6.849,6.849v6.849a6.856,6.856,0,0,0,6.849,6.849h.309l3.149,15.745a1.711,1.711,0,0,0,1.675,1.376,1.638,1.638,0,0,0,.338-.033A1.709,1.709,0,0,0,35,169.68l-3.015-15.073H86.018L83,169.68a1.709,1.709,0,0,0,1.344,2.015,1.628,1.628,0,0,0,.338.033,1.711,1.711,0,0,0,1.675-1.376l3.149-15.745h.309a6.856,6.856,0,0,0,6.849-6.849V140.91A6.855,6.855,0,0,0,89.836,134.063Zm-8.578-20.547A1.712,1.712,0,1,1,82.97,111.8,1.714,1.714,0,0,1,81.258,113.515Zm-44.368-3.424a1.712,1.712,0,1,1-1.712,1.712A1.714,1.714,0,0,1,36.889,110.091ZM38.454,131a6.863,6.863,0,0,1,3.719-6.116A37.674,37.674,0,0,1,59,120.364a37.676,37.676,0,0,1,16.827,4.516A6.863,6.863,0,0,1,79.545,131v3.065H38.454Zm54.788,16.762a3.428,3.428,0,0,1-3.424,3.424H28.182a3.428,3.428,0,0,1-3.424-3.424V140.91a3.428,3.428,0,0,1,3.424-3.424H89.818a3.428,3.428,0,0,1,3.424,3.424Z" transform="translate(-21.333 -89.546)" fill="#392577"/>
      </g>
    </g>
  </g>
</svg>
