<svg xmlns="http://www.w3.org/2000/svg" width="76.802" height="84.3" viewBox="0 0 76.802 84.3"><g transform="translate(-0.083)"><path d="M91.468,28.15c.063-.631.1-1.274.1-1.909A18.67,18.67,0,0,0,55.2,20.3a1.851,1.851,0,0,0,.765,2.15,12.138,12.138,0,1,0-6.4,22.458H90.631a8.4,8.4,0,0,0,.837-16.759ZM59.882,26.386a12.194,12.194,0,0,0-3.65-3.762A12.106,12.106,0,0,1,59.882,26.386Zm0,0" transform="translate(-30.429 -6.174)" fill="#fff"/><path d="M70.324,49.074a6.575,6.575,0,0,0-6.3,4.71H56.171V41.033H60.9a10.255,10.255,0,0,0,2.778-20.124v-.394a20.52,20.52,0,0,0-39.851-6.878,13.99,13.99,0,1,0-4,27.4H20.8V53.788H12.945a6.564,6.564,0,1,0,0,3.7h9.708A1.851,1.851,0,0,0,24.5,55.64V41.034h4.13V65.665H25.429a6.564,6.564,0,1,0,0,3.7h5.058a1.852,1.852,0,0,0,1.852-1.852V41.034h4.295v30.4a6.564,6.564,0,1,0,3.7,0v-30.4h4.295V67.517a1.852,1.852,0,0,0,1.852,1.852h5.058a6.564,6.564,0,1,0,0-3.7H48.336V41.034h4.13V55.64a1.852,1.852,0,0,0,1.852,1.852h9.708a6.562,6.562,0,1,0,6.3-8.413ZM6.648,58.5a2.859,2.859,0,1,1,2.859-2.859A2.86,2.86,0,0,1,6.648,58.5ZM19.134,70.378A2.859,2.859,0,1,1,22,67.517a2.859,2.859,0,0,1-2.869,2.861Zm38.707-5.719a2.859,2.859,0,1,1-2.863,2.858,2.86,2.86,0,0,1,2.863-2.858ZM41.349,77.735a2.859,2.859,0,1,1-2.863-2.859,2.86,2.86,0,0,1,2.863,2.859ZM19.819,37.329a10.282,10.282,0,1,1,8.762-15.666,1.852,1.852,0,0,0,3.244-1.788q-.045-.079-.1-.154a14.025,14.025,0,0,0-4.526-4.56,16.818,16.818,0,0,1,32.765,5.351,17.085,17.085,0,0,1-.087,1.721,1.852,1.852,0,0,0,1.649,2.035h.018a6.549,6.549,0,0,1-.654,13.06Zm50.5,21.17a2.859,2.859,0,1,1,2.857-2.862v0A2.862,2.862,0,0,1,70.324,58.5Zm0,0" fill="#392577"/></g></svg>