<svg xmlns="http://www.w3.org/2000/svg" width="15.687" height="15.687" viewBox="0 0 15.687 15.687">
  <g id="_17446227851556277124" data-name="17446227851556277124" transform="translate(0 0)">
    <g id="Rounded" transform="translate(0 0)">
      <g id="Content" transform="translate(0 0)">
        <g id="_-Round-_-Content-_-mail" data-name="-Round-/-Content-/-mail">
          <g id="Group_1033" data-name="Group 1033">
            <path id="Path" d="M0,0H15.687V15.687H0Z" fill="none" fill-rule="evenodd"/>
            <path id="_Icon-Color" data-name="🔹Icon-Color" d="M13.765,4H3.307A1.311,1.311,0,0,0,2,5.307v7.844a1.311,1.311,0,0,0,1.307,1.307H13.765a1.311,1.311,0,0,0,1.307-1.307V5.307A1.311,1.311,0,0,0,13.765,4ZM13.5,6.778,9.229,9.451a1.3,1.3,0,0,1-1.386,0L3.569,6.778a.555.555,0,1,1,.588-.941L8.536,8.575l4.379-2.739a.555.555,0,1,1,.588.941Z" transform="translate(-0.693 -1.385)" fill="#fff" fill-rule="evenodd"/>
          </g>
        </g>
      </g>
    </g>
  </g>
</svg>
