<svg id="reminder" xmlns="http://www.w3.org/2000/svg" width="29.875" height="18.403" viewBox="0 0 29.875 18.403">
  <path id="Path_271" data-name="Path 271" d="M370.1,215.58l4.565,4.5V214.9a7.111,7.111,0,0,1-3.274.8A8.306,8.306,0,0,1,370.1,215.58Zm0,0" transform="translate(-347.988 -202.058)" fill="#6548bc"/>
  <path id="Path_272" data-name="Path 272" d="M24.676,161.042,22.328,162.7a2.4,2.4,0,0,1-2.778,0l-2.527-1.8L8.1,169.688H33.734l-5.354-5.276A7.185,7.185,0,0,1,24.676,161.042Zm0,0" transform="translate(-7.617 -151.285)" fill="#6548bc"/>
  <path id="Path_273" data-name="Path 273" d="M0,49.1v15l8.849-8.717Zm0,0" transform="translate(0 -46.168)" fill="#6548bc"/>
  <path id="Path_274" data-name="Path 274" d="M27.491,52.8l2.45-1.727a7.173,7.173,0,0,1,.6-6.477L14,44.643,25.484,52.8A1.743,1.743,0,0,0,27.491,52.8Zm0,0" transform="translate(-13.164 -41.937)" fill="#6548bc"/>
  <path id="Path_275" data-name="Path 275" d="M289.869,0a6.454,6.454,0,0,0-4.619,1.948l-.036.036c-.1.1-.185.2-.269.3a.266.266,0,0,0-.036.042,3.69,3.69,0,0,0-.233.3.261.261,0,0,0-.03.042,6.479,6.479,0,0,0-.843,6.082c.018.054.042.114.066.167s.042.1.066.155c.048.1.1.209.144.311.066.137.143.275.221.406a6.513,6.513,0,0,0,2.384,2.348,6.435,6.435,0,0,0,6.459-.054c.113-.066.227-.137.335-.209s.227-.161.334-.245A6.488,6.488,0,0,0,289.869,0Zm3.77,9.578a.383.383,0,0,1-.155.137.324.324,0,0,1-.131.024h-1.882a1.426,1.426,0,1,1-2.844,0h-2.235a.329.329,0,0,1-.287-.161.324.324,0,0,1-.006-.329l.436-.813a2.017,2.017,0,0,0,.239-.95V5.109a3.148,3.148,0,0,1,1.183-2.456.274.274,0,0,1,.042-.03,2.879,2.879,0,0,1,.484-.3.569.569,0,0,1,.06-.03,3.142,3.142,0,0,1,1.165-.311c.072-.006.137-.006.209-.006s.131,0,.2.006a2.958,2.958,0,0,1,1.171.311.148.148,0,0,1,.042.024,2.939,2.939,0,0,1,.484.317c.006.006.018.012.024.018a3.626,3.626,0,0,1,.269.245,3.14,3.14,0,0,1,.221.257c.066.09.131.179.191.275a3.2,3.2,0,0,1,.466,1.685V7.325a2.761,2.761,0,0,0,.167.932,2.649,2.649,0,0,0,.143.323l.191.358.167.311A.355.355,0,0,1,293.64,9.578Zm0,0" transform="translate(-266.466)" fill="#05cafe"/>
  <path id="Path_276" data-name="Path 276" d="M382.946,163.759a.829.829,0,0,0,.753-.861h-1.5A.816.816,0,0,0,382.946,163.759Zm0,0" transform="translate(-359.363 -153.165)" fill="#05cafe"/>
  <path id="Path_277" data-name="Path 277" d="M348.252,48.786V46.569a2.532,2.532,0,0,0-.347-1.3,2.257,2.257,0,0,0-.191-.275,3.062,3.062,0,0,0-.227-.251,2.384,2.384,0,0,0-1.464-.639,1.716,1.716,0,0,0-.173-.006c-.06,0-.126.006-.185.006a2.465,2.465,0,0,0-2.276,2.462v2.378a2.65,2.65,0,0,1-.317,1.261l-.173.323h5.844l-.1-.179A3.324,3.324,0,0,1,348.252,48.786Zm0,0" transform="translate(-322.41 -41.467)" fill="#05cafe"/>
</svg>
