<svg xmlns="http://www.w3.org/2000/svg" width="21.903" height="21.889" viewBox="0 0 21.903 21.889"><g transform="translate(0 0)"><g transform="translate(0 0)"><path d="M21.892,17.462a1.059,1.059,0,0,1-.325.927L18.484,21.45a1.736,1.736,0,0,1-.545.394,2.252,2.252,0,0,1-.661.209q-.023,0-.139.012t-.3.012a10.689,10.689,0,0,1-1.426-.151A10.83,10.83,0,0,1,13,21.184,20.241,20.241,0,0,1,9.766,19.41a24.116,24.116,0,0,1-3.849-3.246A25.408,25.408,0,0,1,3.227,13.1a21.807,21.807,0,0,1-1.716-2.7A14.549,14.549,0,0,1,.537,8.153,11.933,11.933,0,0,1,.1,6.414,5.743,5.743,0,0,1,0,5.266Q.027,4.849.027,4.8a2.254,2.254,0,0,1,.209-.661A1.738,1.738,0,0,1,.63,3.6L3.714.513A1.021,1.021,0,0,1,4.456.188a.865.865,0,0,1,.533.174,1.612,1.612,0,0,1,.394.429L7.864,5.5a1.128,1.128,0,0,1,.116.812,1.445,1.445,0,0,1-.394.742L6.45,8.188a.387.387,0,0,0-.081.151.572.572,0,0,0-.035.174,4.187,4.187,0,0,0,.417,1.113,10.217,10.217,0,0,0,.858,1.356,15.061,15.061,0,0,0,1.646,1.843,15.359,15.359,0,0,0,1.855,1.658,10.712,10.712,0,0,0,1.356.869,3.605,3.605,0,0,0,.835.336l.29.058a.553.553,0,0,0,.151-.035.387.387,0,0,0,.151-.081l1.322-1.345a1.42,1.42,0,0,1,.974-.371,1.212,1.212,0,0,1,.626.139h.023L21.313,16.7A1.166,1.166,0,0,1,21.892,17.462Z" transform="translate(0 -0.188)" fill="#352072"/></g></g></svg>