<svg xmlns="http://www.w3.org/2000/svg" width="91.579" height="75.449" viewBox="0 0 91.579 75.449"><g transform="translate(0 -45.09)"><g transform="translate(0 45.09)"><g transform="translate(0 0)"><path d="M83.53,45.09H27.642a8.058,8.058,0,0,0-8.049,8.049v23.4A18.514,18.514,0,0,0,6.64,94.179q0,.471.024.943a13.676,13.676,0,0,0,7.009,25.417H46.642a14.827,14.827,0,0,0,9.482-3.151,11.419,11.419,0,0,0,3.918-6.505h12.88a2.683,2.683,0,1,0,0-5.366H67.683V98.539H83.53a8.058,8.058,0,0,0,8.049-8.049V53.139A8.058,8.058,0,0,0,83.53,45.09ZM46.642,115.173H13.673a8.308,8.308,0,0,1-3.137-16,2.683,2.683,0,0,0,1.635-2.907,13.271,13.271,0,0,1-.166-2.087,13.117,13.117,0,0,1,24.975-5.6A2.686,2.686,0,0,0,39.627,90.1c.221-.018.414-.027.59-.027a7.081,7.081,0,0,1,7.031,6.507,2.683,2.683,0,0,0,1.875,2.356c3.1.97,5.826,5.315,5.826,9.3C54.949,113.356,50.474,115.173,46.642,115.173Zm15.675-9.656H60.052a17.357,17.357,0,0,0-3.012-6.978h5.277Zm23.9-15.026a2.686,2.686,0,0,1-2.683,2.683H51.991A12.386,12.386,0,0,0,49.2,88.552H86.213Zm0-7.3H39.972A18.584,18.584,0,0,0,25.121,75.7l-.162,0V53.139a2.686,2.686,0,0,1,2.683-2.683H83.53a2.686,2.686,0,0,1,2.683,2.683Z" transform="translate(0 -45.09)" fill="#392577"/></g></g><g transform="translate(49.054 59.011)"><g transform="translate(0 0)"><path d="M289.4,128.58l-9.418-5.176a3.869,3.869,0,0,0-5.733,3.391v10.352a3.862,3.862,0,0,0,5.733,3.391l9.418-5.176a3.869,3.869,0,0,0,0-6.781Zm-9.785,6.036v-5.29l4.813,2.645Z" transform="translate(-274.25 -122.921)" fill="#392577"/></g></g><g transform="translate(21.227 92.829)"><path d="M133.694,317.584l-9.306-5.114a3.855,3.855,0,0,0-5.712,3.378v10.229a3.848,3.848,0,0,0,5.712,3.378l9.306-5.114a3.855,3.855,0,0,0,0-6.757Zm-9.652,5.938V318.4l4.658,2.56Z" transform="translate(-118.677 -311.988)" fill="#392577"/></g></g></svg>