<svg xmlns="http://www.w3.org/2000/svg" width="74.867" height="87.755" viewBox="0 0 74.867 87.755"><g transform="translate(-43.018 -7.252)"><path d="M57.579,26.577l.257,0a13.046,13.046,0,0,1,6.845,2.1A13.323,13.323,0,0,1,69.357,33.9a12.918,12.918,0,0,1,1.376,5.687,13.09,13.09,0,0,1-3.574,9.164,2.636,2.636,0,0,0-.555,2.759,6.933,6.933,0,0,0,1.738,2.566,4.565,4.565,0,0,0,.644.5l.066.045a4.2,4.2,0,0,1-.606-.1l-.024-.006-.024-.006-.166-.037c-.12-.027-.233-.052-.332-.079l-.561-.19-.017-.006,0,0c-.159-.058-.718-.316-.865-.4l-.028-.017-.037-.02a11.573,11.573,0,0,1-1.551-1.2,2.652,2.652,0,0,0-1.747-.655,2.68,2.68,0,0,0-.939.17,13.091,13.091,0,0,1-4.567.817c-.125,0-.252,0-.378-.005a13.157,13.157,0,1,1,.374-26.311m0-1.4a14.559,14.559,0,0,0-.412,29.113q.209.006.417.006a14.511,14.511,0,0,0,5.055-.9,1.291,1.291,0,0,1,.452-.082,1.248,1.248,0,0,1,.824.308A12.765,12.765,0,0,0,65.722,55a10.162,10.162,0,0,0,1.167.538l.594.2c.2.058.4.1.6.144a8.455,8.455,0,0,0,1.183.175l1.151.019a1.061,1.061,0,0,0,.976-.647,1.086,1.086,0,0,0-.508-1.365l-.894-.494a5.864,5.864,0,0,1-.676-.506,5.515,5.515,0,0,1-1.4-2.049,1.252,1.252,0,0,1,.261-1.3A14.564,14.564,0,0,0,57.862,25.177l-.283,0Z" transform="translate(0 -14.782)" fill="#392577"/><path d="M286.061,224.731a3.069,3.069,0,0,0-2.389,2.389.464.464,0,0,1-.885,0,3.069,3.069,0,0,0-2.389-2.389.464.464,0,0,1,0-.885,3.07,3.07,0,0,0,2.389-2.389.464.464,0,0,1,.885,0,3.069,3.069,0,0,0,2.389,2.389.464.464,0,0,1,0,.885Z" transform="translate(-195.511 -176.399)" fill="#392577"/><path d="M429.9,98.175a.7.7,0,0,1-.58-1.094,9.444,9.444,0,0,0,1.505-3.811.7.7,0,1,1,1.384.225,10.835,10.835,0,0,1-1.728,4.372A.7.7,0,0,1,429.9,98.175Z" transform="translate(-318.504 -70.459)" fill="#392577"/><path d="M412.262,130.588a.7.7,0,0,1-.371-1.3c.154-.1.308-.2.457-.3.2-.139.393-.287.579-.439a.7.7,0,1,1,.888,1.085c-.212.174-.435.343-.661.5-.171.12-.346.236-.523.346A.7.7,0,0,1,412.262,130.588Z" transform="translate(-303.957 -99.911)" fill="#392577"/><path d="M287.313,13.152a14.331,14.331,0,0,0-2.5-2.615,14.6,14.6,0,0,0-23.616,13.9,1.5,1.5,0,0,1-.617,1.486l-8.664,6.083c.62-.436,1.644-.149,2.725.648a10.232,10.232,0,0,1,2.208,2.329l.005,0c.144-.088,4.81-2.909,7.2-4.667a3.083,3.083,0,0,0,1.015-1.342c.71-1.633.775-3.7,6.3-4.765,5.028-1.348,6.656-4.425,6.351-8.764a6.257,6.257,0,0,1,1.16-3.892,1.622,1.622,0,0,1,2.213-.918,12.5,12.5,0,0,1-7.639,23.527h0a12.471,12.471,0,0,1-4.153-1.5,3.5,3.5,0,0,0-1.181-.428,3.63,3.63,0,0,0-2.685.6l-7.143,5.005c.387,1.293.312,2.362-.312,2.8l8.664-6.085a1.493,1.493,0,0,1,1.6-.077,14.6,14.6,0,0,0,19.067-21.322Zm-16.332-.6a1.008,1.008,0,1,1-.822-1.165,1.008,1.008,0,0,1,.822,1.165Zm5.458-.715a1.633,1.633,0,1,1-1.332-1.887,1.633,1.633,0,0,1,1.332,1.887Z" transform="translate(-172.293 0)" fill="#392577"/><path d="M283.941,171.7c.025.046.048.092.073.138-.023-.044-.044-.087-.068-.131Z" transform="translate(-198.702 -135.628)" fill="#392577"/><path d="M280.07,165.5c.071.1.139.2.206.305C280.21,165.7,280.141,165.6,280.07,165.5Z" transform="translate(-195.51 -130.516)" fill="#392577"/><path d="M287.285,178.92c-.017-.047-.036-.094-.054-.142C287.25,178.826,287.268,178.874,287.285,178.92Z" transform="translate(-201.416 -141.468)" fill="#392577"/><path d="M281.9,168.264l.063.1Z" transform="translate(-197.02 -132.796)" fill="#392577"/><path d="M286.253,176.389q.036.082.07.164Q286.289,176.471,286.253,176.389Z" transform="translate(-200.609 -139.497)" fill="#392577"/><path d="M285.233,174.193c-.026-.056-.052-.111-.08-.167C285.181,174.081,285.206,174.137,285.233,174.193Z" transform="translate(-199.702 -137.547)" fill="#392577"/><path d="M236.132,183.723l-3.239,2.457a3.818,3.818,0,0,0-1.511,3.042v5.525a10.255,10.255,0,0,0-2.772-.485l.023-4.665a8.5,8.5,0,0,1,3.4-6.75l1.877-1.407A10,10,0,0,0,236.132,183.723Z" transform="translate(-153.068 -143.663)" fill="#392577"/><path d="M255.7,153.38a11,11,0,0,0-3.645-5.18,3.7,3.7,0,0,0-2.026-.852,1.187,1.187,0,0,0-.7.2c-1.051.738-.549,3.268,1.125,5.65l.086.121a10,10,0,0,0,2.226,2.283,3.562,3.562,0,0,0,1.922.778,1.187,1.187,0,0,0,.7-.2C256.017,155.742,256.092,154.673,255.7,153.38Zm-4.062-.936-.035-.049a6.425,6.425,0,0,1-1.419-3.622,3.251,3.251,0,0,1,1.037.554,8.879,8.879,0,0,1,1.894,2.008c.009.012.018.025.025.037l-1.477,1.109c-.007-.012-.016-.025-.025-.037Z" transform="translate(-169.707 -115.544)" fill="#392577"/><path d="M202.508,255.038a10.256,10.256,0,0,0-2.772-.485c-.177-.007-.356-.012-.54-.012h-.081c-3.051.012-5.52,1.115-5.515,2.46v.023c.035,1.328,2.471,2.392,5.476,2.392h.06c.195,0,.387-.005.577-.014a10.358,10.358,0,0,0,2.793-.506l0,0c1.293-.445,2.131-1.139,2.143-1.915v-.023C204.647,256.172,203.808,255.479,202.508,255.038ZM199.648,258c-.182.009-.349.012-.519.012h-.053A6.4,6.4,0,0,1,195.06,257c.358-.373,1.749-1.044,4.067-1.053h.068c.147,0,.3,0,.477.011.019,0,.037,0,.056,0l-.009,2.04C199.7,258,199.672,258,199.648,258Z" transform="translate(-124.193 -203.952)" fill="#392577"/><path d="M159.1,304.619,147.57,279.983a6.735,6.735,0,0,1-.633-2.814l-.044-8.718c-.012.776-.85,1.47-2.143,1.915v16.072s-.331,2.82.92,3.982c.91.845,1.2,3.228,1.1,5.193a.4.4,0,0,0,.494.408.375.375,0,0,0,.067-.023c.124-.054.247-.105.37-.151a8.349,8.349,0,0,1,4.253-.429,1.046,1.046,0,0,1,.79.592l3.98,8.508a.968.968,0,0,1-.4,1.257c-1.917,1.076-6.9,2.555-14.917,2.555s-12.987-1.476-14.91-2.552a.969.969,0,0,1-.4-1.257l2.727-5.82s2.094-1.644,6.63-.945c3.424.527,5.646.867,8.161.046.3-1.693.759-5.256-.408-6.481-1.551-1.628-1.244-4.5-1.244-4.5V270.874c-.189.009-.382.014-.577.014-3.033.014-5.5-1.055-5.536-2.392l.046,8.64a6.742,6.742,0,0,1-.634,2.878l-11.51,24.548h0a1.628,1.628,0,0,0-.175.722c0,2.385,5.613,4.39,13.233,4.975,1.469.114,3.012.173,4.6.173,9.851,0,17.836-2.3,17.836-5.149a1.631,1.631,0,0,0-.147-.664Z" transform="translate(-66.435 -215.425)" fill="#392577"/><path d="M280.071,457.653a.7.7,0,0,1-.159-1.384c.55-.129,1.071-.269,1.548-.416a.156.156,0,0,0,.1-.088.153.153,0,0,0,0-.13l-.929-1.986a.7.7,0,0,1,1.27-.594l.929,1.986a1.559,1.559,0,0,1-.953,2.151c-.508.157-1.061.306-1.644.442a.7.7,0,0,1-.16.018Z" transform="translate(-194.932 -367.345)" fill="#392577"/><path d="M255.066,477.7a.7.7,0,0,1-.075-1.4c.571-.062,1.135-.134,1.678-.215a.7.7,0,1,1,.207,1.387c-.562.084-1.146.159-1.735.223A.715.715,0,0,1,255.066,477.7Z" transform="translate(-174.309 -386.664)" fill="#392577"/><path d="M111.115,159.368h-5.709a.7.7,0,0,1,0-1.4h5.7a.7.7,0,0,1,.006,1.4Z" transform="translate(-50.877 -124.302)" fill="#392577"/><path d="M90.467,56.461a7.388,7.388,0,0,0-4.315,13.547,1.571,1.571,0,0,1,.691,1.316v1.3a.586.586,0,0,0,.587.585h2.242l0-3.874h-.266a1.322,1.322,0,0,1-1.321-1.32V66.8a.647.647,0,0,0-.645-.647.533.533,0,0,1-.535-.524.521.521,0,0,1,.513-.527h.021a1.7,1.7,0,0,1,1.7,1.7v1.22a.269.269,0,0,0,.27.268l1.584,0a.272.272,0,0,0,.268-.27V66.8a1.7,1.7,0,0,1,1.682-1.7h.016a.526.526,0,0,1,.005,1.051h-.011a.647.647,0,0,0-.641.645v1.22A1.32,1.32,0,0,1,91,69.34l-.011,0h-.266l0,3.872h2.3a.585.585,0,0,0,.585-.585v-1.3a1.623,1.623,0,0,1,.733-1.342,7.388,7.388,0,0,0-3.874-13.522ZM85.8,61.439a2.6,2.6,0,0,0-.657,2.442.526.526,0,1,1-1.036.178,3.623,3.623,0,0,1,1.025-3.432.526.526,0,0,1,.668.812Zm1.829-2.151a1.675,1.675,0,0,0-.547.384.526.526,0,0,1-.758-.729,2.721,2.721,0,0,1,.891-.621.526.526,0,0,1,.414.967Z" transform="translate(-32.842 -40.582)" fill="#392577"/></g></svg>