<svg xmlns="http://www.w3.org/2000/svg" width="10.115" height="11.123" viewBox="0 0 10.115 11.123">
    <g transform="translate(0 0)">
        <path d="M9.155,5.1c1.351,0,1.509.007,2.043.033a2.543,2.543,0,0,1,.939.192,1.563,1.563,0,0,1,.582.415,1.725,1.725,0,0,1,.377.64,3.362,3.362,0,0,1,.175,1.033c.024.587.03.762.03,2.247s-.006,1.66-.03,2.247a3.3,3.3,0,0,1-.175,1.033,1.752,1.752,0,0,1-.377.64,1.538,1.538,0,0,1-.582.415,2.59,2.59,0,0,1-.939.192c-.534.026-.692.033-2.043.033s-1.509-.007-2.043-.033A2.543,2.543,0,0,1,6.173,14a1.563,1.563,0,0,1-.582-.415,1.725,1.725,0,0,1-.377-.64,3.362,3.362,0,0,1-.175-1.033c-.024-.587-.03-.762-.03-2.247s.006-1.66.03-2.247a3.3,3.3,0,0,1,.175-1.033,1.752,1.752,0,0,1,.377-.64,1.538,1.538,0,0,1,.582-.415,2.59,2.59,0,0,1,.939-.192C7.646,5.107,7.8,5.1,9.155,5.1m0-1c-1.373,0-1.545.007-2.085.033a3.414,3.414,0,0,0-1.226.258,2.455,2.455,0,0,0-.9.642,2.8,2.8,0,0,0-.584.984A4.437,4.437,0,0,0,4.13,7.369c-.024.592-.03.781-.03,2.291s.006,1.7.03,2.293A4.463,4.463,0,0,0,4.365,13.3a2.751,2.751,0,0,0,.584.984,2.5,2.5,0,0,0,.9.642,3.416,3.416,0,0,0,1.228.258c.54.026.71.033,2.085.033s1.545-.007,2.085-.033a3.436,3.436,0,0,0,1.228-.258,2.455,2.455,0,0,0,.9-.642,2.8,2.8,0,0,0,.584-.984,4.437,4.437,0,0,0,.235-1.351c.024-.594.03-.781.03-2.293s-.006-1.7-.03-2.293a4.463,4.463,0,0,0-.235-1.351,2.751,2.751,0,0,0-.584-.984,2.5,2.5,0,0,0-.9-.642,3.416,3.416,0,0,0-1.228-.258C10.7,4.107,10.528,4.1,9.155,4.1Z"
              transform="translate(-4.1 -4.1)" fill="#fff"/>
        <path d="M129.2,126.6a2.6,2.6,0,1,0,2.6,2.6A2.6,2.6,0,0,0,129.2,126.6Zm0,4.283a1.686,1.686,0,1,1,1.686-1.686A1.686,1.686,0,0,1,129.2,130.883Z"
              transform="translate(-124.142 -123.357)" fill="#fff"/>
        <ellipse cx="0.606" cy="0.606" rx="0.606" ry="0.606" transform="translate(7.149 1.75)" fill="#fff"/>
    </g>
</svg>