<svg xmlns="http://www.w3.org/2000/svg" width="31.197" height="31.197" viewBox="0 0 31.197 31.197"><path d="M0,0H31.2V31.2H0Z" fill="none" fill-rule="evenodd"/><path d="M25.4,4H4.6A2.607,2.607,0,0,0,2,6.6V22.2a2.607,2.607,0,0,0,2.6,2.6H25.4A2.607,2.607,0,0,0,28,22.2V6.6A2.607,2.607,0,0,0,25.4,4Zm-.52,5.524-8.5,5.316a2.575,2.575,0,0,1-2.756,0L5.12,9.524A1.1,1.1,0,1,1,6.29,7.653L15,13.1l8.709-5.446a1.1,1.1,0,1,1,1.17,1.872Z" transform="translate(0.6 1.2)" fill="#352072" fill-rule="evenodd"/></svg>