<svg title="View" xmlns="http://www.w3.org/2000/svg" width="20" class="mr-0"
     viewBox="0 0 14.354 8.556">
    <path d="M7.177,98.725a8.954,8.954,0,0,0-7.064,3.937.568.568,0,0,0,0,.678,8.95,8.95,0,0,0,7.064,3.94,8.954,8.954,0,0,0,7.064-3.937.568.568,0,0,0,0-.678A8.95,8.95,0,0,0,7.177,98.725Zm.2,7.291a3.019,3.019,0,1,1,2.816-2.816A3.021,3.021,0,0,1,7.373,106.016Zm-.091-1.392A1.626,1.626,0,1,1,8.8,103.106,1.623,1.623,0,0,1,7.282,104.624Z"
          transform="translate(0 -98.725)" fill="#05CAFE"/>
</svg>